<?xml version="1.0" encoding="UTF-8"?>
<svg id="Laag_1" data-name="Laag 1" xmlns="http://www.w3.org/2000/svg" version="1.1" viewBox="0 0 1024 1024">
  <defs>
    <style>
      .cls-1 {
        fill: #000;
        stroke-width: 0px;
      }
    </style>
  </defs>
  <path class="cls-1" d="M780.1,358.9l-115.3-115.3c-11.2-11.2-26.3-17.4-42.1-17.5h-359.7c-32.8.1-59.3,26.6-59.4,59.4v475.1c.1,32.8,26.6,59.3,59.4,59.4h475.1c32.8-.1,59.3-26.6,59.4-59.4v-359.7c0-15.8-6.2-31-17.5-42.1h0ZM381.8,364.8c-5.3,0-10.3-2.1-14-5.8-3.7-3.7-5.8-8.8-5.8-14v-79.2h59.4v99.1h-39.5ZM461.1,265.7h118.8v79.2c0,5.3-2.1,10.3-5.8,14-3.7,3.7-8.8,5.8-14,5.8h-98.9v-99.1ZM639.3,780.5h-277.3v-99.1c.1-32.8,26.6-59.3,59.4-59.4h158.5,0c32.8.1,59.3,26.6,59.4,59.4v99.1ZM758,760.7c0,11-8.9,19.9-19.9,19.9h-59.4v-99.1c0-26.2-10.4-51.4-29-70-18.6-18.6-43.7-29-70-29h-158.5c-26.3,0-51.4,10.4-70,29-18.5,18.5-29,43.7-29,70v99.1h-59.4c-5.2,0-10.3-2.2-13.9-5.9-3.8-3.7-5.9-8.7-5.9-13.9v-475.1c0-11,8.9-19.9,19.9-19.9h59.4v79.2c.1,32.8,26.6,59.3,59.4,59.4h178.2c32.8-.1,59.3-26.6,59.4-59.4v-79.2h3.3c5.3,0,10.4,2.2,14.1,5.9l115.3,115.3c3.7,3.8,5.9,8.8,5.9,14.1v359.7Z"/>
</svg>