<svg id="Group_678" data-name="Group 678" xmlns="http://www.w3.org/2000/svg" width="20" height="19.023" viewBox="0 0 20 19.023">
  <path id="Path_212" data-name="Path 212" d="M-3.9-1.466C-4.728-.579-5.55.317-6.4,1.19c-.531.548-1.1,1.063-1.649,1.59a1.19,1.19,0,0,0-.385,1.126c.224,1.327.449,2.653.646,3.984a10.782,10.782,0,0,1,.115,1.575c0,.513-.217.68-.69.5A21.3,21.3,0,0,1-10.4,9.044q-1.371-.7-2.7-1.47a1.654,1.654,0,0,0-1.764-.011c-1.047.572-2.107,1.118-3.172,1.656a11.439,11.439,0,0,1-1.412.61c-.7.242-.931.09-.87-.64.08-.937.24-1.869.391-2.8.128-.794.289-1.583.439-2.374a1.447,1.447,0,0,0-.438-1.434c-.749-.7-1.481-1.425-2.2-2.154-.488-.493-.977-.989-1.415-1.525-.552-.672-.46-.983.4-1.159,1.112-.23,2.244-.364,3.368-.534q.906-.137,1.814-.255A1.29,1.29,0,0,0-16.9-3.8q.577-1.176,1.178-2.342c.362-.7.73-1.4,1.112-2.094a3.428,3.428,0,0,1,.427-.562.385.385,0,0,1,.667,0,5.866,5.866,0,0,1,.626.929c.566,1.127,1.155,2.248,1.638,3.411A2.36,2.36,0,0,0-9.092-2.834c1.364.127,2.719.383,4.069.634A5.442,5.442,0,0,1-3.9-1.716Z" transform="translate(23.897 8.988)" fill="#cc8e2e"/>
</svg>
