<svg xmlns="http://www.w3.org/2000/svg" xmlns:xlink="http://www.w3.org/1999/xlink" width="265.219" height="265.217" viewBox="0 0 265.219 265.217">
  <defs>
    <clipPath id="clip-path">
      <path id="Path_22" data-name="Path 22" d="M0,151.831H265.219V-113.386H0Z" transform="translate(0 113.386)" fill="#fcfbfa"/>
    </clipPath>
  </defs>
  <g id="Group_50" data-name="Group 50" transform="translate(0 113.386)">
    <g id="Group_35" data-name="Group 35" transform="translate(0 -113.386)" clip-path="url(#clip-path)">
      <g id="Group_34" data-name="Group 34" transform="translate(0 0.001)">
        <path id="Path_21" data-name="Path 21" d="M86.046.309c-1.275.566-.108-1.46,0,0M55.329.522c-.1-1.46-1.272.571,0,0M95.281,3.315c-.1-1.462-1.272.568,0,0m-31.36.43c.285,0,.615.04.749-.105V2.992a.531.531,0,0,0-.749.753m-30.071,0c-.105-1.46-1.275.568,0,0m39.1,3.113a1.421,1.421,0,0,0,1.074,0,1.438,1.438,0,0,0,0-1.071.766.766,0,0,0-1.074,1.071m31.573-.536c-.108-1.462-1.27.566,0,0m-62.076.646c.283,0,.613.04.753-.11V6.215a.533.533,0,0,0-.753.753m39.628,3c1.261,1.2,2.21-1.932.433-1.4a.858.858,0,0,0-.433,1.4m-30.932,0c.821,1.291,2.582-.47,1.293-1.286-.26.065-.784-.136-.858.108-.412.126-.491.585-.435,1.179m62.722-.643c-.105-1.462-1.275.566,0,0m-92.252.643c-.105-1.462-1.275.571,0,0m69.269,2.257c-.171,2.11,2.952.868,1.934-.538a1.158,1.158,0,0,0-1.934.538m-30.819.643a1.224,1.224,0,0,0,2.362-.643c-.108-.552-.547-1.12-1.612-.753-.608.208-.931.482-.751,1.4m63.038-.538c-.1-1.462-1.27.568,0,0M29.878,13.3a.842.842,0,0,0,1.284-1.074A.842.842,0,0,0,29.878,13.3m41.668,3.328a1.483,1.483,0,0,0-1.184-2.47c-2.893.309-.526,4.175,1.184,2.47m30.717-1.5c-.082-.54-.43-1.05-1.4-.751-2.65.823,1.827,3.654,1.4.751m-63.688.966a1.224,1.224,0,0,0,2.362-.643c-.105-.55-.545-1.118-1.612-.753-.6.208-.926.484-.751,1.4m93.761-.753c-.11-1.457-1.275.571,0,0M9.365,16.308c-.108-1.464-1.275.568,0,0M78.1,18.24c-.428,2.992,3.845,2.332,3.221-.215-.173-.706-.821-1.357-2.147-.966A1.4,1.4,0,0,0,78.1,18.24m-29,2.15c1.918-.1,2.021-3.476-.325-3.116-2.138.332-1.375,3.2.325,3.116m62.507-2.255c-.082-.54-.435-1.053-1.4-.753-2.65.826,1.829,3.656,1.4.753m29.963.213c-.11-1.46-1.275.568,0,0M17.418,19.529c.816,1.289,2.575-.472,1.289-1.289-.26.065-.779-.133-.858.108-.412.129-.489.587-.43,1.181m40.166,4.079c2.6.8,3.733-3.93.538-3.649a1.893,1.893,0,0,0-.538,3.649m29.643-2.36c-.414,3.052,4.072,2.463,3.436-.215a1.641,1.641,0,0,0-2.257-1.074,1.517,1.517,0,0,0-1.179,1.289m33.507,0c-.047-.585-.379-1.081-1.289-.753-2.215.8,1.495,3.214,1.289.753M26.119,22c-.126,2.384,3.123,1.787,2.791-.215-.112-.678-.627-1.315-1.827-.964A1.159,1.159,0,0,0,26.119,22m-29,.538c-.105-1.462-1.272.566,0,0m68.305,1.609c-.536,2.348,1.427,2.971,2.683,2.685,2.224-.508,1.757-4.79-1.286-3.972a2.037,2.037,0,0,0-1.4,1.286M97.966,26.4c2.479.234,2.826-4.255-.213-3.541-2.325.54-1.251,3.406.213,3.541m-61.433.536c2.482.234,2.826-4.252-.211-3.541-2.32.543-1.247,3.406.211,3.541M128.357,25c1.263,1.2,2.21-1.934.43-1.4a.86.86,0,0,0-.43,1.4M5.173,25.758c.816,1.286,2.58-.472,1.291-1.289-.257.065-.779-.136-.858.108-.412.129-.489.587-.433,1.181m70.455,4.079c3.558,1.675,4.638-4.905.646-4.187-2.428.435-1.981,3.562-.646,4.187m32-.428c2.407-.108,2.026-3.857-.325-3.546a1.783,1.783,0,0,0,.325,3.546m-63.793-1.5c-.239,3.176,4.2,3.078,4.3.32a1.988,1.988,0,0,0-2.58-2.145,1.852,1.852,0,0,0-1.717,1.824m93.866,0a1.438,1.438,0,0,0,1.071,0,1.4,1.4,0,0,0,0-1.074.767.767,0,0,0-1.071,1.074m-121.357,1.5a1.486,1.486,0,0,0-1.184-2.472c-2.893.311-.529,4.18,1.184,2.472m-31.472-.646c-.1-1.462-1.272.568,0,0m98.807,1.181c-1.184,3.516,3.691,4.154,4.51,1.717a2.286,2.286,0,0,0-2.685-3.111,2.375,2.375,0,0,0-1.824,1.394m-30.717.108c-1.478,3.279,3.361,4.7,4.51,2.147a2.412,2.412,0,0,0-2.468-3.436,2.481,2.481,0,0,0-2.042,1.289m62.079.215c-.414,3.052,4.07,2.463,3.436-.215a1.639,1.639,0,0,0-2.257-1.074,1.522,1.522,0,0,0-1.179,1.289m-92.472.751a1.9,1.9,0,0,0,2.367,2.255c2.25-.37,1.878-4.47-.971-3.757a1.775,1.775,0,0,0-1.4,1.5m124.581-.213c.29,0,.615.04.756-.11v-.643a.534.534,0,0,0-.756.753M-6.854,32.092a.844.844,0,0,0,1.289-1.074.844.844,0,0,0-1.289,1.074m71.418,4.725c3.481-.112,3.09-5.572-.32-5.263-3.431.313-3.017,5.373.32,5.263m28.354-3.974c-1.277,3.619,3.654,4.36,4.512,1.934a2.345,2.345,0,0,0-2.9-3.223,2.29,2.29,0,0,0-1.609,1.289M33.85,36.709c2.905-.1,2.968-5.1-.43-4.617-2.95.423-2.323,4.706.43,4.617m90.536-3.328c-.257,2.762,3.562,2.21,3.221-.108-.119-.807-.7-1.513-2.04-1.181a1.386,1.386,0,0,0-1.181,1.289m32.649.213c-.1-1.457-1.272.571,0,0m-155.4.861c-.126,2.384,3.125,1.787,2.791-.215-.11-.676-.625-1.317-1.827-.966a1.162,1.162,0,0,0-.964,1.181M75.09,39.61c2.69-1.457,1.177-5.724-1.934-5.155-4.3.791-1.663,7.106,1.934,5.155M-27.366,34.993c-.108-1.462-1.272.568,0,0m129.628.858c-1.279,3.619,3.654,4.36,4.512,1.932a2.345,2.345,0,0,0-2.9-3.223,2.3,2.3,0,0,0-1.609,1.291M43.084,40.038c3.483-.112,3.088-5.572-.32-5.261-3.427.311-3.017,5.368.32,5.261m93.221-2.362a1.481,1.481,0,0,0-1.179-2.468c-2.9.309-.526,4.175,1.179,2.468m-125.977-.43A1.9,1.9,0,0,0,12.691,39.5c2.255-.367,1.883-4.475-.966-3.759a1.775,1.775,0,0,0-1.4,1.5m72.923,5.8c3.7-.33,3.207-6.435-.856-5.691-3.672.674-2.529,6,.856,5.691m-102.025-4.83c.285,0,.61.04.748-.11v-.641a.53.53,0,0,0-.748.751m70.56,5.048c4.43.54,4.3-6.6-.213-5.691-3.006.6-3.015,5.293.213,5.691m59.712-4.3c-1.188,3.516,3.686,4.157,4.512,1.719a2.287,2.287,0,0,0-2.685-3.113,2.388,2.388,0,0,0-1.827,1.394m-92.36,1.289c-.358,3.534,4.463,3.258,4.723.643a2.258,2.258,0,0,0-2.9-2.578,1.908,1.908,0,0,0-1.824,1.934m124.15-.323a1.226,1.226,0,0,0,2.365-.643c-.112-.547-.55-1.118-1.614-.753-.6.211-.929.482-.751,1.4M-9.327,42.08c1.562.1,1.874-2.7,0-2.47a1.242,1.242,0,0,0,0,2.47M93.564,45.834c2.55-1.254,1.67-5.745-1.506-5.581-4.87.246-2.657,7.637,1.506,5.581M58.55,42.08c-1.792,4.25,4.418,5.852,5.8,2.575a3.115,3.115,0,0,0-3.436-4.295A2.9,2.9,0,0,0,58.55,42.08m63.365,2.791c3.558,1.675,4.638-4.905.646-4.187-2.426.433-1.977,3.558-.646,4.187M28.8,45.621c2.732,2.538,6.414-1.715,3.862-4.079a2.811,2.811,0,0,0-2.145-.646A2.766,2.766,0,0,0,28.8,45.621m124.26-2.36c1.258,1.2,2.206-1.937.426-1.4a.861.861,0,0,0-.426,1.4M-.2,45.621c2.484.234,2.828-4.255-.213-3.541-2.316.54-1.247,3.4.213,3.541M69.829,49.6a3.443,3.443,0,0,0,4.082-2.362,4.539,4.539,0,0,0-.861-3.221,4.046,4.046,0,0,0-2.472-.861c-3.82.206-4.231,5.625-.748,6.444m33.074-.753c2.554-1.258,1.675-5.745-1.5-5.581-4.872.246-2.662,7.635,1.5,5.581m-65.94-3.111c-1.23,4.491,6.121,5.326,6.121.856a2.986,2.986,0,0,0-3.328-3.008,2.859,2.859,0,0,0-2.793,2.152m-67.337-1.506c-.105-1.462-1.275.568,0,0m160.558.968c-.536,2.346,1.427,2.971,2.688,2.683,2.222-.51,1.757-4.793-1.289-3.972a2.034,2.034,0,0,0-1.4,1.289M9.365,49.165c2.9-.1,2.966-5.106-.433-4.617-2.947.423-2.323,4.709.433,4.617m153.253-3.113c.283,0,.615.04.753-.108V45.3a.533.533,0,0,0-.753.753M76.594,50.239c.592,2.863,5.913,3.621,6.657,0a3.367,3.367,0,0,0-4.187-4.082,3.266,3.266,0,0,0-2.47,4.082m-98.916-2.791c.821,1.289,2.58-.472,1.291-1.291-.255.065-.779-.133-.858.11-.409.124-.487.585-.433,1.181m68.305,3.221c.793,2.652,5.494,3.19,6.449,0a3.372,3.372,0,1,0-6.449,0m65.087,1.4c3.7-.332,3.2-6.437-.861-5.693-3.675.676-2.526,6,.861,5.693M16.56,51.85c2.732,2.536,6.411-1.717,3.864-4.082a2.816,2.816,0,0,0-2.147-.643A2.766,2.766,0,0,0,16.56,51.85m123.615-1.612c2.819,2.538,4.744-4.152.748-3.113a1.823,1.823,0,0,0-.748,3.113m32.323-1.4c-.1-1.462-1.272.568,0,0m-186.334.968c-.257,2.767,3.565,2.208,3.221-.108-.119-.807-.7-1.516-2.037-1.181a1.4,1.4,0,0,0-1.184,1.289M86.692,54.856a3.614,3.614,0,0,0,4.935,0,3.448,3.448,0,1,0-4.935,0M54.9,52.816c.2,4.1,6.97,4.578,7.087-.108a3.438,3.438,0,0,0-4.077-3.544c-2.2.334-3.118,1.551-3.01,3.651m66.478,1.717c2.69-1.455,1.174-5.721-1.932-5.153-4.306.791-1.665,7.1,1.932,5.153m-95.9.538c2.975,2.973,7.408-1.883,4.4-4.617a3.627,3.627,0,0,0-2.8-.643,3.164,3.164,0,0,0-1.609,5.261m125.334-1.612c1.916-.1,2.021-3.473-.325-3.113-2.143.332-1.378,3.2.325,3.113M-5.03,52.171a2.206,2.206,0,0,0,2.578,3.006c2.629-.48,1.778-4.825-1.071-4.187A2.057,2.057,0,0,0-5.03,52.171m69.274,1.934a3.756,3.756,0,0,0,4.942,4.94c3.693-1.467,1.974-6.086,0-6.874a5.168,5.168,0,0,0-2.365-.105,3.545,3.545,0,0,0-2.578,2.04M98.609,58.83c4.62-.11,4.089-7.359-.536-6.765-4.217.538-3.689,6.863.536,6.765M34.5,58.294a3.625,3.625,0,0,0,4.942,0,3.452,3.452,0,1,0-4.942,0m94.079-.646c4.206.786,4.166-5.946,0-5.048-2.8.606-2.164,4.643,0,5.048m-162.6-3.974c.285,0,.615.04.753-.11v-.641a.532.532,0,0,0-.753.751M6.357,58.722c3.481-.115,3.085-5.572-.323-5.263-3.431.313-3.017,5.373.323,5.263m152.4-3.546a1.224,1.224,0,0,0,2.362-.643c-.108-.547-.545-1.116-1.612-.751-.606.208-.926.482-.751,1.394m-85.38,1.934a4.183,4.183,0,0,0,0,3.006c1.09,2.751,5.845,3.125,7.09,0a3.8,3.8,0,0,0-4.4-5.153,4,4,0,0,0-2.685,2.147m-97.95.43c1.565.1,1.881-2.7,0-2.47a1.241,1.241,0,0,0,0,2.47M106.56,61.62c5.583,1.705,6.093-7.583.428-6.444-3.513.709-3.083,5.637-.428,6.444m-63.8-4.295a3.755,3.755,0,0,0,4.94,4.94c3.691-1.467,1.979-6.091,0-6.874a5.2,5.2,0,0,0-2.365-.105,3.536,3.536,0,0,0-2.575,2.04m93.436-.215c-1.279,3.619,3.654,4.358,4.51,1.934a2.343,2.343,0,0,0-2.9-3.223,2.285,2.285,0,0,0-1.609,1.289M12.478,58.184c-1.226,4.5,6.121,5.331,6.121.861a2.984,2.984,0,0,0-3.331-3.008,2.85,2.85,0,0,0-2.79,2.147m156.048.218a.845.845,0,0,0,1.289-1.076.845.845,0,0,0-1.289,1.076m-184.4,2.683c2.6.8,3.733-3.932.538-3.654a1.9,1.9,0,0,0-.538,3.654m98.161.641a3.886,3.886,0,0,0,3.866,3.759c5.216,0,4.823-8.376-.533-7.621a3.539,3.539,0,0,0-3.333,3.862M52.321,59.363c-1.684,2.182-.358,5.859,2.255,6.339A4.024,4.024,0,0,0,59.3,62.694a3.859,3.859,0,0,0-4.725-4.617,3.42,3.42,0,0,0-2.255,1.286m61.646.646c-1.4,3.279,2.009,5.427,4.4,4.4,2.891-1.233,1.925-5.19,0-6.009a4.494,4.494,0,0,0-2.15-.108,3.206,3.206,0,0,0-2.255,1.715m-91.715,4.51a3.618,3.618,0,0,0,4.942,0,3.45,3.45,0,1,0-4.942,0M145.54,60.87c-.239,3.176,4.2,3.078,4.3.32a1.988,1.988,0,0,0-2.58-2.145,1.854,1.854,0,0,0-1.719,1.824M-45.627,59.688c-.1-1.462-1.272.568,0,0m37.376,1.5c-1.481,3.282,3.361,4.7,4.512,2.15A2.418,2.418,0,0,0-6.209,59.9,2.484,2.484,0,0,0-8.251,61.19m186.98-.105c-.1-1.464-1.275.568,0,0M60.913,63.122c-1.719,3.923,2.638,6.72,5.48,5.476,3.862-1.691,2.568-8.343-2.255-7.728a4.182,4.182,0,0,0-3.226,2.253m30.714,1.614c.11,4.636,7.733,5.146,7.733-.11a3.767,3.767,0,0,0-4.292-3.757c-2.423.276-3.49,1.668-3.441,3.866M33.96,68.815c4.182,0,4.91-6,1.394-7.3a5.08,5.08,0,0,0-1.934-.108c-4.493.634-4.11,7.41.54,7.41m89.354-5.693c-1.794,4.257,4.416,5.855,5.8,2.58a3.116,3.116,0,0,0-3.438-4.3,2.894,2.894,0,0,0-2.358,1.717m-160.562-.105a1.438,1.438,0,0,0,1.071,0,1.422,1.422,0,0,0,0-1.074.766.766,0,0,0-1.071,1.074m194.282,2.9c2.4-.105,2.021-3.855-.325-3.541a1.781,1.781,0,0,0,.325,3.541M2.815,68.17c4.43.54,4.3-6.594-.22-5.691-3.006.6-3.01,5.3.22,5.691M70.15,65.915A4.205,4.205,0,1,0,78.1,67.849a4.245,4.245,0,0,0-7.948-1.934m31.039.218a4.191,4.191,0,0,0,0,3c1.092,2.753,5.845,3.13,7.085,0a3.794,3.794,0,0,0-4.4-5.153,4,4,0,0,0-2.683,2.15m-130.166-.648a1.5,1.5,0,1,0,3.006-.105A1.326,1.326,0,0,0-27.8,64.09a1.258,1.258,0,0,0-1.181,1.394m68.415.968a4.638,4.638,0,0,0,0,3.223,4.335,4.335,0,0,0,5.368,2.147c3.328-1.308,2.94-6.367,0-7.518a4.729,4.729,0,0,0-2.47-.11,3.675,3.675,0,0,0-2.9,2.257m96.327,3.866c3.7-.332,3.209-6.437-.854-5.693-3.672.676-2.529,6,.854,5.693M9.252,69.353c.793,2.652,5.494,3.186,6.449,0a3.371,3.371,0,1,0-6.449,0M164.767,67.1a1.4,1.4,0,1,0,2.791-.108c-.047-.816-.55-1.453-1.719-1.179a1.178,1.178,0,0,0-1.071,1.286m-182.9,3.544c2.769-.108,2.585-4.664-.428-4.187-2.688.423-1.984,4.285.428,4.187m97.3-1.4c-.8,2.145-.164,2.781,0,3.223,1.184,3.155,6.608,3.567,7.946,0a5.289,5.289,0,0,0-.966-4.617,4.261,4.261,0,0,0-3.866-1.074,4.091,4.091,0,0,0-3.113,2.468m-30.717.215c-.8,2.145-.164,2.779,0,3.221,1.186,3.153,6.608,3.567,7.948,0a5.315,5.315,0,0,0-.966-4.617,4.262,4.262,0,0,0-3.864-1.074,4.093,4.093,0,0,0-3.118,2.47m62.076-.323c-2.033,5.05,5.289,6.945,6.874,3.01a3.7,3.7,0,0,0-4.189-5.05,3.549,3.549,0,0,0-2.685,2.04m-92.255.643a3.754,3.754,0,0,0,4.942,4.94c3.693-1.467,1.977-6.084,0-6.87a5.092,5.092,0,0,0-2.362-.108,3.569,3.569,0,0,0-2.58,2.037M144.038,73c4.208.786,4.168-5.951,0-5.048-2.8.606-2.161,4.641,0,5.048M-48.632,68.921c-.1-1.46-1.272.568,0,0M-11.687,71.5c0,3.438,5.37,3.546,5.37,0A2.528,2.528,0,0,0-9.43,68.921,2.445,2.445,0,0,0-11.687,71.5m186.442-.748c1.258,1.2,2.208-1.939.428-1.4a.859.859,0,0,0-.428,1.4M57.264,74.186a4.433,4.433,0,0,0,4.507,4.295c5.965-.119,5.331-9.436-.646-8.7a4.05,4.05,0,0,0-3.862,4.407m31.25-1.937c-.807,2.143-.166,2.781,0,3.221,1.186,3.158,6.61,3.572,7.946,0a5.3,5.3,0,0,0-.961-4.617,4.3,4.3,0,0,0-3.871-1.074,4.107,4.107,0,0,0-3.113,2.47m32.221,3.974c3.628,3.481,8.049-2.479,4.833-5.261a4.307,4.307,0,0,0-2.793-.753,3.555,3.555,0,0,0-2.04,6.014M27.2,72.68a4.6,4.6,0,0,0,0,3.221,4.328,4.328,0,0,0,5.366,2.15c3.328-1.3,2.943-6.365,0-7.518a4.659,4.659,0,0,0-2.47-.105,3.674,3.674,0,0,0-2.9,2.253m-67.772-.533c.819,1.286,2.578-.472,1.289-1.293-.26.068-.781-.131-.861.11-.412.124-.487.585-.428,1.184M152.955,75.58c3.962,1.453,4.449-5.3.325-4.3-2.484.606-1.705,3.794-.325,4.3M-2.022,76.759c2.978,2.978,7.41-1.881,4.4-4.613A3.617,3.617,0,0,0-.41,71.5a3.165,3.165,0,0,0-1.612,5.261m68.415.325c0,5.6,9.019,6.086,9.019,0a4.419,4.419,0,0,0-5.05-4.4,4.233,4.233,0,0,0-3.969,4.4m31.573-2.147a4.2,4.2,0,1,0,7.948,1.932,4.244,4.244,0,0,0-7.948-1.932m86.99-1.614c-.1-1.46-1.27.568,0,0M-32.2,74.719c0,3.1,5.153,1.193,3.006-1.179a1.709,1.709,0,0,0-1.5-.43c-1.17.164-1.5.751-1.5,1.609M35.89,77.3c0,5.127,8.591,6,8.591,0a4.217,4.217,0,0,0-4.835-4.187A3.9,3.9,0,0,0,35.89,77.3m93.221-.858c-.225,4.119,6.547,4.935,6.655.32a3.25,3.25,0,0,0-3.864-3.326,2.983,2.983,0,0,0-2.79,3.006M10.866,80.84c3.607-1.413,2.29-7.492-2.04-6.765-5.029.844-2.678,8.612,2.04,6.765m152.4-2.47c2.5-.1,2.355-4.213-.43-3.759-2.463.4-1.682,3.843.43,3.759m-185.368,1.5c3.649,1.258,4.2-5.165.323-4.292-2.585.578-1.831,3.775-.323,4.292m98.053-1.715a4.38,4.38,0,0,0,0,3.866c1.661,3.714,7.055,2.961,8.379,0,1.722-3.848-1.75-6.9-5.048-6.337a4.85,4.85,0,0,0-3.331,2.47M44.914,80.3c0,5.6,9.019,6.084,9.019,0a4.415,4.415,0,0,0-5.045-4.4,4.237,4.237,0,0,0-3.974,4.4m61.969-.325c.117,4.94,8.294,5.413,8.161-.211a4.014,4.014,0,0,0-4.512-3.869,3.783,3.783,0,0,0-3.649,4.079m-87.315,4.4a4.382,4.382,0,0,0,3-3.01,3.842,3.842,0,0,0-4.723-4.615c-4.823.933-3.541,8.545,1.719,7.625m119.1-5.478c-.858,4.454,5.342,5,6.016,1.5a3.046,3.046,0,0,0-3.761-3.651,2.951,2.951,0,0,0-2.255,2.147m-190.306-.748c-.105-1.462-1.272.566,0,0m38.985,5.366c4.411.812,4.461-6.423,0-5.473-2.762.589-2.858,4.949,0,5.473m186.117-3.006a1.48,1.48,0,0,0-1.179-2.468c-2.893.309-.526,4.175,1.179,2.468M84.972,83.954c.568,4.428,7.7,5.024,8.914.43a4.527,4.527,0,0,0-5.265-5.693,4.363,4.363,0,0,0-3.649,5.263M54.043,82.667c-.734,6.311,8.584,7.078,9.235,1.286A4.538,4.538,0,0,0,57.8,78.8a4.212,4.212,0,0,0-3.757,3.866m63.038-2.257c-1.684,2.182-.358,5.859,2.257,6.337a4.027,4.027,0,0,0,4.725-3.006,3.857,3.857,0,0,0-4.725-4.617,3.4,3.4,0,0,0-2.257,1.286m-93.113,1.5a4.54,4.54,0,0,0,0,3.219c1.378,3.752,6.889,2.9,7.95,0a4.291,4.291,0,0,0-7.95-3.219M-43.8,80.84c-.166,2.11,2.952.868,1.934-.536a1.035,1.035,0,0,0-.966-.325,1.03,1.03,0,0,0-.968.861m192.137.966a2.531,2.531,0,0,0,1.715,3.434c4.4,1.263,4.7-6.308.112-5.151a2.493,2.493,0,0,0-1.827,1.717M-6.1,83.844c.087,3.916,6.662,4.4,6.662-.1A3.265,3.265,0,0,0-3.1,80.518,2.954,2.954,0,0,0-6.1,83.844M94.2,86.106c0,5.443,9.024,6.152,9.024,0A4.429,4.429,0,0,0,98.286,81.7,4.158,4.158,0,0,0,94.2,86.106M180.984,83.1c1.261,1.2,2.208-1.937.43-1.4a.861.861,0,0,0-.43,1.4M32.664,86.534c0,5.6,9.026,6.082,9.026,0a4.418,4.418,0,0,0-5.045-4.407,4.243,4.243,0,0,0-3.981,4.407m-66.048-.753c2.409-.11,2.026-3.855-.32-3.544a1.782,1.782,0,0,0,.32,3.544M126,84.384c-2.035,5.048,5.289,6.945,6.875,3.006a3.7,3.7,0,0,0-4.189-5.045A3.544,3.544,0,0,0,126,84.384M2.705,86.854c.1,4.468,7.515,4.935,7.515-.108A3.686,3.686,0,0,0,6.249,83.1a3.479,3.479,0,0,0-3.544,3.757m155.187-2.04c-1.186,3.513,3.686,4.154,4.512,1.719a2.288,2.288,0,0,0-2.683-3.116,2.386,2.386,0,0,0-1.829,1.4m-184.5,1.822c-.36,3.537,4.461,3.258,4.723.646a2.257,2.257,0,0,0-2.9-2.575,1.9,1.9,0,0,0-1.822,1.93m130.164,2.578c.129,5.331,8.8,5.841,8.8-.108a4.279,4.279,0,0,0-4.83-4.292,4.14,4.14,0,0,0-3.974,4.4M44.16,93.724a4.732,4.732,0,0,0,6.977-4.292A4.605,4.605,0,0,0,45.88,84.92a4.718,4.718,0,0,0-1.719,8.8m147.026-8.053c-.108-1.457-1.272.571,0,0M138.775,92.33c4.622-.11,4.089-7.359-.538-6.767-4.215.543-3.684,6.865.538,6.767M13.554,86.206c-2.968,1.75-2.365,7.356,1.822,7.63a4.073,4.073,0,0,0,4.4-4.512,3.964,3.964,0,0,0-4.727-3.544,4.059,4.059,0,0,0-1.5.426m155.94,4.407c2.5-.1,2.353-4.213-.43-3.759-2.465.4-1.682,3.838.43,3.759M-54.648,87.39c-.1-1.462-1.272.568,0,0m39.2,5.473c4.43.545,4.3-6.591-.213-5.686-3.006.6-3.01,5.293.213,5.686m128.662-2.358c-.8,2.143-.166,2.779,0,3.219,1.186,3.153,6.608,3.569,7.946,0a5.294,5.294,0,0,0-.964-4.617,4.251,4.251,0,0,0-3.869-1.071,4.075,4.075,0,0,0-3.113,2.47M20.536,92.863a4.432,4.432,0,0,0,4.507,4.3c5.962-.119,5.328-9.433-.646-8.7a4.045,4.045,0,0,0-3.862,4.4M145,90.613c-1.787,4.25,4.421,5.852,5.8,2.575a3.116,3.116,0,0,0-3.436-4.295A2.9,2.9,0,0,0,145,90.613m-190.2.646a1.156,1.156,0,0,0-.643-2.152c-1.948.269-.8,2.8.643,2.152m39.523,5.153c4.538-.1,4.023-7.2-.433-6.767-4.353.426-3.747,6.856.433,6.767m182.9-4.723a1.4,1.4,0,1,0,2.79-.11c-.047-.819-.545-1.45-1.717-1.186a1.186,1.186,0,0,0-1.074,1.3M29.768,94.262c-2,6.334,7.1,8.407,8.807,3.008,1.237-3.909-1.923-6.645-5.368-6.011a4.37,4.37,0,0,0-3.438,3m92.685,1.717c.826,4.519,8.975,3.876,7.946-1.717a4.023,4.023,0,0,0-4.832-3,3.9,3.9,0,0,0-3.113,4.72M-37.784,94.585c2.819,2.536,4.746-4.152.751-3.113a1.823,1.823,0,0,0-.751,3.113M-.2,94.692c-1.64,5.506,6.089,6.65,7.307,2.578a5.215,5.215,0,0,0-.968-4.082A4.242,4.242,0,0,0,2.6,92.33,3.536,3.536,0,0,0-.2,94.692m154.761-.643a2.54,2.54,0,0,0,1.719,3.434c4.4,1.261,4.7-6.308.105-5.153a2.5,2.5,0,0,0-1.824,1.719M-29.726,96.3c.11,3.188,5.048,3.069,4.935-.213a2.248,2.248,0,0,0-2.9-2.253A2.166,2.166,0,0,0-29.726,96.3m130.052,1.4c-.727,6.315,8.589,7.083,9.237,1.286a4.53,4.53,0,0,0-5.473-5.148,4.221,4.221,0,0,0-3.764,3.862m86.887-2.47a.843.843,0,0,0,1.289-1.071.843.843,0,0,0-1.289,1.071m-51.548,6.657c4.03,0,4.877-5.731,1.612-7.193a5.268,5.268,0,0,0-2.042-.215c-4.638.529-4.075,7.408.43,7.408M8.506,99.31c.29,4.556,8.121,5.49,8.371-.108a4.118,4.118,0,0,0-4.828-4.3,4.069,4.069,0,0,0-3.544,4.4m156.906.748c3.962,1.457,4.454-5.3.32-4.292-2.479.6-1.7,3.787-.32,4.292M-57.652,96.624c-.11-1.464-1.272.564,0,0m36.62,2.685c.1,3.5,6.016,4,6.016-.108a2.933,2.933,0,0,0-3.331-2.9,2.75,2.75,0,0,0-2.685,3.008m130.7,2.04c0,5.45,9.019,6.154,9.019,0a4.424,4.424,0,0,0-4.94-4.4,4.152,4.152,0,0,0-4.079,4.4m87.74-3.438c-.1-1.457-1.268.568,0,0m-180,4.082c0,5.6,9.022,6.086,9.022,0a4.419,4.419,0,0,0-5.048-4.4,4.234,4.234,0,0,0-3.974,4.4M145,104.57c4.62-.108,4.089-7.356-.533-6.767-4.224.543-3.689,6.863.533,6.767M-48.2,100.489a1.152,1.152,0,0,0-.646-2.145c-1.941.262-.8,2.8.646,2.145m38.983,5.158c5.017.479,4.971-7.637-.211-6.769-3.7.622-3.74,6.388.211,6.769m184.615-2.9c2.484.232,2.83-4.257-.213-3.544-2.318.538-1.247,3.406.213,3.544m-56.273,1.612c0,5.326,8.741,5.836,8.591-.112a4.187,4.187,0,0,0-4.723-4.077,3.973,3.973,0,0,0-3.869,4.189m-159.912-.538c2.821,2.536,4.746-4.152.749-3.113a1.822,1.822,0,0,0-.749,3.113m191.915-.43c-.856,4.454,5.342,5,6.018,1.5a3.046,3.046,0,0,0-3.761-3.651,2.951,2.951,0,0,0-2.257,2.147M-3.1,103.5a3.844,3.844,0,0,0,1.827,5.261,4.078,4.078,0,0,0,5.261-1.822A3.879,3.879,0,0,0-.2,101.455,3.627,3.627,0,0,0-3.1,103.5m186.767.748a1.223,1.223,0,0,0,2.36-.641c-.108-.55-.545-1.116-1.612-.753-.6.208-.926.484-.748,1.394m-216.407,1.289c.11,3.19,5.052,3.069,4.94-.215a2.258,2.258,0,0,0-2.9-2.255,2.177,2.177,0,0,0-2.04,2.47m161.418,2.685c.826,4.519,8.97,3.881,7.948-1.717A4.033,4.033,0,0,0,131.8,103.5a3.9,3.9,0,0,0-3.113,4.723M5.713,106.61a4.522,4.522,0,0,0,0,3.221c1.373,3.752,6.882,2.9,7.946,0a4.2,4.2,0,0,0-4.832-5.693,4.181,4.181,0,0,0-3.113,2.472m157.014,3.113c4.206.791,4.168-5.946,0-5.045-2.8.606-2.166,4.641,0,5.045m-223.389-3.864c-.1-1.462-1.27.568,0,0m36.625,2.683c.1,3.5,6.011,4,6.011-.105a2.932,2.932,0,0,0-3.326-2.9,2.747,2.747,0,0,0-2.685,3.008m130.484,2.147c.115,6.037,9.569,6.032,9.457-.215a4.642,4.642,0,0,0-5.158-4.507,4.491,4.491,0,0,0-4.3,4.723m87.317-3.326c.283,0,.613.04.756-.108v-.646a.534.534,0,0,0-.756.753M14.838,109.08c-2.26,4.323,2.667,8.088,6.231,6.227,4.185-2.185,2.376-9.508-3.113-8.479a4.951,4.951,0,0,0-3.118,2.253m123.615-.215c-2.033,5.05,5.291,6.945,6.874,3.006a3.691,3.691,0,0,0-4.187-5.043,3.538,3.538,0,0,0-2.688,2.037m-191.27-.323c-.173,2.11,2.945.868,1.93-.536a1.035,1.035,0,0,0-.966-.323,1.016,1.016,0,0,0-.964.858m40.592,6.337c5.02.482,4.97-7.637-.215-6.769-3.693.627-3.738,6.39.215,6.769m182.685-4.94c-.243,3.176,4.2,3.078,4.295.323a1.992,1.992,0,0,0-2.578-2.152,1.851,1.851,0,0,0-1.717,1.829M115.9,113.587c0,5.45,9.017,6.159,9.017,0a4.43,4.43,0,0,0-4.94-4.4,4.157,4.157,0,0,0-4.077,4.4m-158.31-.1c2.409-.112,2.026-3.857-.318-3.546a1.783,1.783,0,0,0,.318,3.546m190.2-.325c-.227,4.119,6.549,4.935,6.662.325a3.261,3.261,0,0,0-3.866-3.333,2.987,2.987,0,0,0-2.8,3.008m-153.9-.428a3.844,3.844,0,0,0,1.827,5.261,4.072,4.072,0,0,0,5.263-1.824A3.878,3.878,0,0,0-3.2,110.689,3.629,3.629,0,0,0-6.1,112.731m188.058,2.042c1.913-.1,2.021-3.478-.325-3.116-2.143.33-1.38,3.2.325,3.116M-35.529,113.7c-1.279,3.619,3.654,4.36,4.51,1.93a2.337,2.337,0,0,0-2.9-3.216,2.3,2.3,0,0,0-1.614,1.286m161.2,1.289c-.8,2.143-.159,2.779,0,3.223,1.186,3.153,6.61,3.567,7.948,0a5.308,5.308,0,0,0-.966-4.622,4.258,4.258,0,0,0-3.866-1.071,4.1,4.1,0,0,0-3.116,2.47m-122.967.858a4.522,4.522,0,0,0,0,3.221c1.375,3.752,6.886,2.9,7.946,0a4.2,4.2,0,0,0-4.832-5.693,4.181,4.181,0,0,0-3.113,2.472m157.98,3.436c3.7-.33,3.2-6.437-.861-5.693-3.672.678-2.526,6,.861,5.693m-224.353-4.187c-.105-1.462-1.275.566,0,0m36.835,1.717c-1.153,4.318,4.713,4.985,5.586,1.717a2.847,2.847,0,0,0-3.544-3.649,2.658,2.658,0,0,0-2.042,1.932m217.268,0c1.261,1.2,2.208-1.937.428-1.4a.86.86,0,0,0-.428,1.4m-54.671.32c-1.679,2.182-.358,5.862,2.26,6.339a4.026,4.026,0,0,0,4.725-3,3.861,3.861,0,0,0-4.725-4.622,3.416,3.416,0,0,0-2.26,1.286m-123.93,1.184c-2.26,4.323,2.664,8.091,6.229,6.224,4.18-2.182,2.376-9.506-3.118-8.481a4.951,4.951,0,0,0-3.111,2.257m-67.447,0c.816,1.291,2.575-.472,1.286-1.286-.257.066-.777-.138-.856.1-.412.126-.489.587-.43,1.184m222.957.108c-1.277,3.621,3.654,4.355,4.51,1.932a2.345,2.345,0,0,0-2.9-3.223,2.3,2.3,0,0,0-1.607,1.291m-182.04,5.689c4.542-.1,4.026-7.2-.43-6.762-4.355.426-3.75,6.856.43,6.762m127.481-1.93c-.73,6.313,8.587,7.08,9.237,1.289a4.541,4.541,0,0,0-5.48-5.155,4.221,4.221,0,0,0-3.757,3.866m87.85-2.793c-.1-1.462-1.27.566,0,0m-56.06,3.436c.2,4.1,6.973,4.578,7.09-.105a3.444,3.444,0,0,0-4.084-3.548,3.122,3.122,0,0,0-3.006,3.654m-191.81-1.932c0,3.1,5.155,1.188,3-1.181a1.7,1.7,0,0,0-1.5-.43c-1.17.166-1.5.751-1.5,1.612m37.8,2.9c.1,4.666,7.733,4.992,7.733-.112a3.648,3.648,0,0,0-4.192-3.754,3.542,3.542,0,0,0-3.541,3.866m186.977,0c2.821,2.536,4.746-4.152.751-3.113a1.823,1.823,0,0,0-.751,3.113m-55.309,2.147c.129,5.328,8.807,5.836,8.807-.11a4.281,4.281,0,0,0-4.833-4.292,4.138,4.138,0,0,0-3.974,4.4m-159.379.108c3.651,1.254,4.2-5.167.32-4.3-2.582.58-1.829,3.773-.32,4.3M.666,129.7a4.465,4.465,0,0,0,6.014,0,4.2,4.2,0,1,0-6.014,0m153.793-5.373c-1.794,4.252,4.419,5.857,5.8,2.58a3.118,3.118,0,0,0-3.436-4.3,2.891,2.891,0,0,0-2.362,1.717m-182.578,5.263c4.641,1.532,5.244-6.512.323-5.37-3.113.723-2.25,4.737-.323,5.37m215.011-3.866a1.223,1.223,0,0,0,2.36-.643c-.105-.55-.545-1.116-1.612-.753-.6.208-.931.482-.748,1.4m-54.771,1.4c-1.722,3.923,2.634,6.72,5.476,5.473,3.862-1.691,2.568-8.343-2.257-7.726a4.164,4.164,0,0,0-3.219,2.253M9.9,126.26a4.135,4.135,0,0,0-1.506,3.759,4.6,4.6,0,0,0,4.94,4.189c3.6-.29,5.539-5.385,2.58-7.948a4.893,4.893,0,0,0-3.649-.968,4.186,4.186,0,0,0-2.365.968m156.8,5.048c3.478-.119,3.088-5.574-.32-5.261-3.431.309-3.02,5.368.32,5.261m-225.1-3.546a.842.842,0,0,0,1.286-1.074.843.843,0,0,0-1.286,1.074m37.268,2.257c.084,3.913,6.657,4.4,6.657-.108a3.264,3.264,0,0,0-3.651-3.223,2.954,2.954,0,0,0-3.006,3.331m218.124-1.184c.285,0,.613.042.751-.105v-.646a.531.531,0,0,0-.751.751m-55.312,1.5c-2.028,5.048,5.291,6.945,6.877,3.006a3.692,3.692,0,0,0-4.192-5.041,3.531,3.531,0,0,0-2.685,2.035m-191.7-.105a1.5,1.5,0,1,0,3.006-.108,1.33,1.33,0,0,0-1.827-1.291,1.262,1.262,0,0,0-1.179,1.4m37.7,2.788c.1,4.47,7.518,4.935,7.518-.105a3.69,3.69,0,0,0-3.976-3.651,3.478,3.478,0,0,0-3.541,3.757m186.117-2.035c-.536,2.339,1.422,2.971,2.688,2.678,2.222-.505,1.759-4.793-1.291-3.967a2.045,2.045,0,0,0-1.4,1.289m-54.664,4.079c0,5.448,9.022,6.149,9.022,0a4.429,4.429,0,0,0-4.94-4.407,4.162,4.162,0,0,0-4.082,4.407m-158.3.213c2.767-.11,2.582-4.664-.43-4.187-2.683.423-1.981,4.28.43,4.187m192.668,2.79a3.444,3.444,0,0,0,4.084-2.36,4.522,4.522,0,0,0-.863-3.223,4.042,4.042,0,0,0-2.47-.856c-3.82.2-4.224,5.621-.751,6.439M-1.484,132.379C-4.448,134.127-3.849,139.736.343,140a4.071,4.071,0,0,0,4.4-4.51A3.972,3.972,0,0,0,.02,131.949a4.082,4.082,0,0,0-1.5.43m187.623,3.331a1.483,1.483,0,0,0-1.184-2.47c-2.891.306-.524,4.175,1.184,2.47m-218.875.43c0,3.436,5.37,3.539,5.37,0a2.527,2.527,0,0,0-3.116-2.58,2.442,2.442,0,0,0-2.255,2.58m161.847,0a4.2,4.2,0,1,0,7.948,1.93,4.067,4.067,0,0,0-4.723-4.079,4.114,4.114,0,0,0-3.226,2.15m-118.782,7.19a4.472,4.472,0,0,0,3.974-4.079,4.269,4.269,0,0,0-5.05-4.615c-5.375.763-4.73,9.2,1.076,8.694m154.652-3.008c2.688-1.453,1.179-5.721-1.932-5.153-4.306.793-1.663,7.108,1.932,5.153m-226.393-3.754a2.607,2.607,0,0,0,.54.536.806.806,0,0,0,.751-.751.66.66,0,0,0-1.291.215m39.846,5.691c4.889.905,5.211-7.239,0-6.119-3.389.725-2.69,5.623,0,6.119m215.331-4.082a1.428,1.428,0,0,0,1.076,0,1.467,1.467,0,0,0,0-1.074.768.768,0,0,0-1.076,1.074M14.733,140.435c-2,6.329,7.1,8.4,8.807,3,1.235-3.9-1.923-6.641-5.368-6.014a4.374,4.374,0,0,0-3.438,3.01m123.827-.858a4.217,4.217,0,0,0,0,3c1.092,2.751,5.85,3.127,7.092,0a3.8,3.8,0,0,0-4.4-5.155,4.034,4.034,0,0,0-2.688,2.152m-190.2,1.179c1.558.1,1.869-2.7,0-2.468a1.24,1.24,0,0,0,0,2.468m41.457,4.723c3.6-1.41,2.288-7.492-2.044-6.765-5.029.849-2.676,8.612,2.044,6.765m181.93-2.573c3.558,1.675,4.638-4.905.643-4.192-2.423.437-1.979,3.562-.643,4.192m-55.312-.54a4.372,4.372,0,0,0,0,3.866c1.665,3.717,7.05,2.961,8.376,0,1.726-3.848-1.747-6.9-5.043-6.334a4.879,4.879,0,0,0-3.333,2.468M-42.191,144.4c2.5-.1,2.358-4.208-.426-3.757-2.465.4-1.682,3.841.426,3.757m190.2.538c.594,2.865,5.913,3.619,6.662,0a3.368,3.368,0,0,0-4.192-4.079,3.26,3.26,0,0,0-2.47,4.079m-154.329.32c.105,4.638,8.07,5.277,7.948-.213a3.74,3.74,0,0,0-4.3-3.754,3.684,3.684,0,0,0-3.649,3.967m186.762-1.715c-.426,2.987,3.85,2.327,3.226-.218-.175-.7-.826-1.354-2.15-.966a1.408,1.408,0,0,0-1.076,1.184m-215.975,2.04c.11,3.186,5.055,3.067,4.94-.213a2.254,2.254,0,0,0-2.9-2.257,2.175,2.175,0,0,0-2.04,2.47m161.418.108c-.807,2.143-.166,2.779,0,3.219,1.186,3.16,6.608,3.569,7.946,0a5.3,5.3,0,0,0-.964-4.613A4.26,4.26,0,0,0,129,143.226a4.089,4.089,0,0,0-3.113,2.47M2.815,146.769c-2.04,6.308,8.376,7.845,8.376,1.4a4.241,4.241,0,0,0-4.512-4.187,4.062,4.062,0,0,0-3.864,2.79M160.9,149.988c3.7-.327,3.2-6.435-.858-5.686-3.677.671-2.526,5.988.858,5.686m-224.353-4.079c-.105-1.462-1.272.568,0,0m36.84,1.719c-1.158,4.318,4.706,4.985,5.581,1.717a2.846,2.846,0,0,0-3.546-3.649,2.652,2.652,0,0,0-2.035,1.932m217.048-.323c.816,1.286,2.573-.47,1.286-1.289-.255.068-.777-.136-.858.108-.409.126-.487.589-.428,1.181m-55.2,3.113a3.886,3.886,0,0,0,3.864,3.761c5.214,0,4.828-8.381-.538-7.623a3.535,3.535,0,0,0-3.326,3.862M13.121,147.733a4.139,4.139,0,0,0-1.5,3.764,4.593,4.593,0,0,0,4.94,4.187c3.588-.29,5.537-5.382,2.578-7.95a4.9,4.9,0,0,0-3.651-.964,4.237,4.237,0,0,0-2.365.964m154.436,1.509c-1.184,3.513,3.691,4.152,4.512,1.717a2.29,2.29,0,0,0-2.685-3.118,2.39,2.39,0,0,0-1.827,1.4m-222.954-.11c.814,1.286,2.575-.472,1.289-1.291-.257.068-.779-.133-.861.108-.412.129-.487.585-.428,1.184m40.166,5.691a3.442,3.442,0,0,0,3.759-1.934,3.339,3.339,0,0,0-3.759-4.617c-3.244.568-3.836,5.969,0,6.552M113.434,151.6a4.344,4.344,0,0,0,0,3.864c1.661,3.717,7.05,2.961,8.374,0,1.724-3.85-1.752-6.9-5.048-6.334a4.842,4.842,0,0,0-3.326,2.47m-92.793,2.36c-.208,5.988,7.754,6.2,9.237,1.827a6.826,6.826,0,0,0-.538-4.292,5,5,0,0,0-2.362-1.829,4.779,4.779,0,0,0-6.337,4.295M200.959,150.1c-.1-1.467-1.27.564,0,0m-55.094,5.689a3.625,3.625,0,0,0,4.942,0,3.452,3.452,0,1,0-4.942,0M-46.916,151.5c-.257,2.762,3.567,2.21,3.226-.112-.119-.807-.7-1.511-2.042-1.179a1.4,1.4,0,0,0-1.184,1.291m37.806,3.113c.1,4.465,7.518,4.931,7.518-.11a3.69,3.69,0,0,0-3.974-3.651,3.485,3.485,0,0,0-3.544,3.761m186.442-1.827c-.412,3.052,4.07,2.461,3.436-.213a1.634,1.634,0,0,0-2.255-1.074,1.516,1.516,0,0,0-1.181,1.286m-54.451,2.147c-.8,2.143-.164,2.781,0,3.223,1.188,3.151,6.605,3.567,7.948,0a5.306,5.306,0,0,0-.968-4.62A4.259,4.259,0,0,0,126,152.458a4.091,4.091,0,0,0-3.116,2.472m-160.988-1.076a2.206,2.206,0,0,0,2.578,3.008c2.629-.482,1.775-4.826-1.074-4.192a2.059,2.059,0,0,0-1.5,1.184m197.073,5.155c2.55-1.258,1.675-5.742-1.5-5.583-4.87.246-2.657,7.639,1.5,5.583M-.2,157.505c0,5.029,8.287,5.532,8.166-.108a3.992,3.992,0,0,0-4.295-3.864A3.8,3.8,0,0,0-.2,157.505m-29.315.218c0,3.436,5.368,3.541,5.368,0a2.529,2.529,0,0,0-3.113-2.58,2.443,2.443,0,0,0-2.255,2.58M187.213,156c-.168,2.11,2.95.868,1.934-.538a1.049,1.049,0,0,0-.966-.323,1.03,1.03,0,0,0-.968.861m-54.987,3.649a3.89,3.89,0,0,0,3.864,3.761c5.216,0,4.823-8.379-.536-7.625a3.536,3.536,0,0,0-3.328,3.864m-123.4.54c-.442,5.684,8.255,6.21,8.591.641a4.212,4.212,0,0,0-4.94-4.51,3.991,3.991,0,0,0-3.651,3.869m155.725-1.939c-1.478,3.286,3.364,4.7,4.512,2.154a2.415,2.415,0,0,0-2.472-3.438,2.458,2.458,0,0,0-2.04,1.284m-222.742-.211a2.435,2.435,0,0,0,.538.536.81.81,0,0,0,.751-.753.659.659,0,0,0-1.289.217m37.483,2.791a3.03,3.03,0,0,0,3.221,3.008c3.172-.094,3.721-4.334,1.717-5.689a2.866,2.866,0,0,0-2.257-.43,2.813,2.813,0,0,0-2.681,3.111M110.1,162.766c0,5.6,9.022,6.091,9.022,0a4.415,4.415,0,0,0-5.05-4.4,4.234,4.234,0,0,0-3.972,4.4m87.853-3.434c-.108-1.462-1.275.564,0,0m-178.606.748a4.136,4.136,0,0,0-1.5,3.761,4.583,4.583,0,0,0,4.94,4.185c3.59-.285,5.534-5.38,2.578-7.946a4.92,4.92,0,0,0-3.654-.966,4.269,4.269,0,0,0-2.365.966m123.509,4.942a3.62,3.62,0,0,0,4.94,0,3.451,3.451,0,1,0-4.94,0m-191.274-2.791c1.56.1,1.871-2.7,0-2.472a1.243,1.243,0,0,0,0,2.472m39.628,4.938c5.017.48,4.973-7.635-.215-6.762-3.7.62-3.735,6.381.215,6.762m184.617-3.008c2.479.236,2.826-4.255-.215-3.541-2.318.543-1.244,3.406.215,3.541m-55.735-.32a4.2,4.2,0,1,0,7.943,1.932,4.241,4.241,0,0,0-7.943-1.932m-92.9,1.181c-2.009,6.332,7.1,8.409,8.8,3,1.235-3.906-1.92-6.643-5.37-6.009a4.366,4.366,0,0,0-3.431,3.006m-67.557.32c2.819,2.538,4.744-4.152.751-3.111a1.822,1.822,0,0,0-.751,3.111m196.322,2.9c2.55-1.258,1.675-5.742-1.5-5.583-4.872.246-2.662,7.639,1.5,5.583M-2.452,164.808c-1.96,3.42,1.9,6.882,5.048,5.37,3.495-1.682,2.173-7.929-2.47-7.087a3.889,3.889,0,0,0-2.578,1.717m188.806.32c-.082-.538-.43-1.05-1.4-.749-2.645.823,1.831,3.654,1.4.749m-88.6,3.223c-.732,6.315,8.584,7.085,9.235,1.284a4.535,4.535,0,0,0-5.478-5.148,4.212,4.212,0,0,0-3.757,3.864M-32.093,166.1c-1.188,3.518,3.689,4.157,4.514,1.717a2.287,2.287,0,0,0-2.688-3.111,2.38,2.38,0,0,0-1.827,1.394m161.524,1.394c-1.64,5.508,6.089,6.657,7.3,2.58a5.171,5.171,0,0,0-.971-4.082,4.248,4.248,0,0,0-3.539-.861,3.537,3.537,0,0,0-2.8,2.362m-123.4,2.253c0,5.034,8.285,5.534,8.163-.108a3.994,3.994,0,0,0-4.3-3.862,3.8,3.8,0,0,0-3.866,3.969m155.51-2.253c-1.476,3.284,3.364,4.7,4.512,2.145a2.411,2.411,0,0,0-2.47-3.431,2.466,2.466,0,0,0-2.042,1.286m-221.773-.108c-.105-1.46-1.275.571,0,0m39.628,5.37c3.672,0,3.637-6.082-.43-5.476-3.317.489-2.924,5.476.43,5.476m127.8-.646a4.44,4.44,0,0,0,4.51,4.3c5.967-.115,5.328-9.433-.641-8.7a4.057,4.057,0,0,0-3.869,4.4m87.745-3.544c-.105-1.46-1.272.571,0,0m-55.955,4.082c.589,2.863,5.911,3.616,6.662,0a3.37,3.37,0,0,0-4.192-4.082,3.266,3.266,0,0,0-2.47,4.082m-123.615-1.5a4.575,4.575,0,0,0,0,3.221c1.375,3.752,6.884,2.9,7.95,0a4.2,4.2,0,0,0-4.835-5.691,4.183,4.183,0,0,0-3.116,2.47m-67.337-.32c1.258,1.2,2.208-1.937.428-1.4a.864.864,0,0,0-.428,1.4M172.823,173.4c2.479.229,2.826-4.257-.213-3.544-2.325.538-1.249,3.4.213,3.544m-184.938,2.683c4.889.9,5.211-7.237,0-6.119-3.392.725-2.692,5.621,0,6.119m99.983,3.326a4.734,4.734,0,0,0,6.982-4.292,4.6,4.6,0,0,0-5.261-4.507,4.716,4.716,0,0,0-1.722,8.8m29.213-6.117c-1.717,3.918,2.641,6.715,5.48,5.473,3.864-1.689,2.568-8.343-2.257-7.731a4.191,4.191,0,0,0-3.223,2.257M29.02,180.164a4.474,4.474,0,0,0,3.969-4.082,4.272,4.272,0,0,0-5.05-4.617c-5.378.763-4.73,9.2,1.081,8.7m-70.027-5.908a1.483,1.483,0,0,0-1.184-2.47c-2.891.313-.524,4.18,1.184,2.47m192.133,3.436c4.433.543,4.3-6.594-.213-5.691-3,.6-3.013,5.3.213,5.691M-2.56,179.408c5.015.482,4.97-7.635-.215-6.762-3.691.62-3.735,6.388.215,6.762m185.908-5.045c-.082-.538-.435-1.05-1.394-.749-2.655.821,1.827,3.654,1.394.749m-88.5,3.869c0,5.6,9.022,6.084,9.022,0a4.416,4.416,0,0,0-5.048-4.4,4.235,4.235,0,0,0-3.974,4.4M-32.2,178.124c2.435-.62,1.184-4.924-1.291-3.761a1.992,1.992,0,0,0,1.291,3.761m67.014-2.793a4.152,4.152,0,0,0-1.506,3.757,4.591,4.591,0,0,0,4.945,4.187c3.588-.288,5.534-5.38,2.578-7.943a4.889,4.889,0,0,0-3.654-.968,4.193,4.193,0,0,0-2.362.968m91.824,1.179a3.755,3.755,0,0,0,4.942,4.94c3.689-1.467,1.977-6.086,0-6.872a5.224,5.224,0,0,0-2.365-.11,3.563,3.563,0,0,0-2.578,2.042M3.349,179.088c.1,4.468,7.518,4.935,7.518-.108a3.687,3.687,0,0,0-3.972-3.649,3.481,3.481,0,0,0-3.546,3.757m155.082-1.609c-.356,3.532,4.461,3.254,4.727.646a2.259,2.259,0,0,0-2.9-2.58,1.91,1.91,0,0,0-1.827,1.934m-184.294.753c-1.282,3.614,3.654,4.358,4.512,1.932a2.343,2.343,0,0,0-2.9-3.223,2.281,2.281,0,0,0-1.609,1.291m99.342,1.712c-2,6.339,7.1,8.411,8.807,3.01,1.237-3.909-1.918-6.643-5.37-6.014a4.385,4.385,0,0,0-3.436,3m31.147-.32a4.528,4.528,0,0,0,0,3.223c1.375,3.752,6.886,2.893,7.946,0a4.29,4.29,0,0,0-7.946-3.223m-61.541,0c-2.257,4.325,2.669,8.091,6.231,6.229,4.182-2.187,2.379-9.508-3.118-8.481a4.967,4.967,0,0,0-3.113,2.253M191.938,177.8c-.1-1.462-1.272.571,0,0m-53.485,6.444a3.442,3.442,0,0,0,4.082-2.36,4.509,4.509,0,0,0-.858-3.223,4.061,4.061,0,0,0-2.47-.861c-3.822.2-4.224,5.628-.753,6.444m-126.085-2.15c.108,4.638,8.072,5.272,7.948-.211a3.735,3.735,0,0,0-4.295-3.759,3.693,3.693,0,0,0-3.654,3.969M-54,179.624c-.1-1.457-1.27.568,0,0m222.314.865c-.414,3.05,4.072,2.458,3.438-.225a1.644,1.644,0,0,0-2.255-1.071,1.524,1.524,0,0,0-1.184,1.3M-14.372,185c3.672,0,3.637-6.082-.43-5.478-3.314.489-2.921,5.478.43,5.478m96.98-.22a4.58,4.58,0,0,0,4.94,4.192c3.569-.288,5.544-5.375,2.58-7.95a4.922,4.922,0,0,0-3.654-.961,4.27,4.27,0,0,0-3.866,4.72m-30.286-2.15c-2.26,4.327,2.664,8.091,6.229,6.234,4.185-2.187,2.376-9.513-3.113-8.484a4.944,4.944,0,0,0-3.116,2.25m66.371,5.48a4.43,4.43,0,0,0,3.01-3.006,3.841,3.841,0,0,0-4.725-4.613c-4.818.926-3.551,8.538,1.715,7.618M23.432,181.45c-2.964,1.75-2.362,7.356,1.827,7.623a4.073,4.073,0,0,0,4.407-4.51,3.974,3.974,0,0,0-4.727-3.546,4.124,4.124,0,0,0-1.506.433m124.475,5.37c4.414.812,4.463-6.425,0-5.478-2.762.585-2.861,4.954,0,5.478m-193.854-3.974c.819,1.289,2.58-.47,1.289-1.284-.257.061-.779-.14-.856.1-.414.126-.489.582-.433,1.181m37.7,2.47a3.024,3.024,0,0,0,3.221,3c3.174-.089,3.724-4.332,1.722-5.693a2.915,2.915,0,0,0-2.257-.423,2.819,2.819,0,0,0-2.685,3.113M178.191,183.7c-.171,2.11,2.952.872,1.934-.533a1.159,1.159,0,0,0-1.934.533m-86.134,3.436c-.437,5.693,8.255,6.217,8.591.648a4.209,4.209,0,0,0-4.935-4.512,4,4,0,0,0-3.656,3.864m-29.423-2.791a4.13,4.13,0,0,0-1.509,3.759,4.6,4.6,0,0,0,4.942,4.192c3.593-.292,5.534-5.385,2.578-7.95A4.907,4.907,0,0,0,65,183.382a4.179,4.179,0,0,0-2.362.966m60.888,3.118c.208,4.1,6.977,4.578,7.092-.11a3.445,3.445,0,0,0-4.079-3.548,3.13,3.13,0,0,0-3.013,3.658M31.81,191.01a4.465,4.465,0,0,0,6.014,0,4.2,4.2,0,1,0-6.014,0m-69.164-5.586a1.5,1.5,0,1,0,3-.108c-.044-.889-.6-1.553-1.827-1.289a1.261,1.261,0,0,0-1.177,1.4m194.062,3.649c3.56,1.677,4.643-4.9.648-4.187-2.423.433-1.977,3.56-.648,4.187m-153.25,2.47a3.432,3.432,0,0,0,3.757-1.93A3.337,3.337,0,0,0,3.458,185c-3.244.566-3.836,5.969,0,6.547M75.305,195.2a4.483,4.483,0,0,0,3.974-4.084,4.268,4.268,0,0,0-5.05-4.613c-5.378.76-4.734,9.2,1.076,8.7m-101.277-4.835c2.435-.618,1.184-4.919-1.286-3.759a1.99,1.99,0,0,0,1.286,3.759m127.8-1.5a4.651,4.651,0,0,0,0,3.223,4.334,4.334,0,0,0,5.368,2.147c3.328-1.305,2.943-6.365,0-7.518a4.644,4.644,0,0,0-2.468-.11,3.694,3.694,0,0,0-2.9,2.257m87.1-1.827c-.105-1.462-1.268.571,0,0M40.186,189.4a4.529,4.529,0,0,0,0,3.223c1.373,3.745,6.884,2.9,7.948,0a4.291,4.291,0,0,0-7.948-3.223m93.866,3.116c2.973,2.973,7.405-1.883,4.4-4.617a3.624,3.624,0,0,0-2.788-.648,3.167,3.167,0,0,0-1.612,5.265m-121.9,2.15c5.836,1.731,6.252-8,.43-6.874-3.726.723-3.4,5.99-.43,6.874m153.257-4.94c-.428,2.987,3.843,2.33,3.223-.217-.178-.7-.823-1.357-2.152-.964a1.4,1.4,0,0,0-1.071,1.181m-185.048.856c-1.184,3.52,3.689,4.157,4.51,1.722a2.286,2.286,0,0,0-2.683-3.116,2.384,2.384,0,0,0-1.827,1.394m99.773,1.614a4.559,4.559,0,0,0,0,3.219c1.375,3.752,6.884,2.9,7.948,0a4.29,4.29,0,0,0-7.948-3.219m-30.717.213a4.564,4.564,0,0,0,0,3.221c1.375,3.75,6.884,2.893,7.948,0a4.29,4.29,0,0,0-7.948-3.221m61.969-.426a3.752,3.752,0,0,0,4.94,4.935c3.693-1.469,1.979-6.091,0-6.872a5.087,5.087,0,0,0-2.362-.105,3.542,3.542,0,0,0-2.578,2.042m-92.573,2.358c.1,4.465,7.515,4.933,7.515-.105a3.687,3.687,0,0,0-3.974-3.654,3.476,3.476,0,0,0-3.541,3.759m126.835,1.609c3.478-.112,3.085-5.567-.325-5.261s-3.013,5.373.325,5.261m-194.069-3.862c.283,0,.613.035.751-.105v-.648a.532.532,0,0,0-.751.753m37.591,2.36c0,3.438,5.366,3.539,5.366,0a2.525,2.525,0,0,0-3.111-2.578,2.441,2.441,0,0,0-2.255,2.578m186.222-.966c.821,1.286,2.58-.472,1.294-1.286-.26.063-.781-.138-.861.108-.409.126-.487.58-.433,1.179M58.445,197.34c.292,4.561,8.124,5.49,8.376-.105a4.125,4.125,0,0,0-4.835-4.3,4.066,4.066,0,0,0-3.541,4.4M89.59,195.2a4.61,4.61,0,0,0,0,3.219,4.335,4.335,0,0,0,5.368,2.15c3.328-1.305,2.94-6.365,0-7.515a4.669,4.669,0,0,0-2.468-.112,3.7,3.7,0,0,0-2.9,2.26m31.25,2.362c.8,2.65,5.5,3.188,6.442,0a3.369,3.369,0,1,0-6.442,0m-92.9-.22c.11,4.673,7.738,4.994,7.738-.105a3.648,3.648,0,0,0-4.189-3.757,3.547,3.547,0,0,0-3.548,3.862m-67.66-2.253c.819,1.286,2.58-.47,1.3-1.291-.26.068-.784-.133-.863.112-.409.126-.487.585-.433,1.179m192.462.538c-.538,2.341,1.417,2.975,2.683,2.683,2.222-.508,1.754-4.793-1.291-3.972a2.025,2.025,0,0,0-1.392,1.289M-1.7,196.591c-1.155,4.318,4.711,4.982,5.583,1.717a2.845,2.845,0,0,0-3.544-3.647,2.649,2.649,0,0,0-2.04,1.93m187.621-.325c-.1-1.457-1.27.573,0,0m-116.2.215c-2.961,1.752-2.36,7.354,1.827,7.628a4.067,4.067,0,0,0,4.4-4.512,3.963,3.963,0,0,0-4.723-3.544,4.156,4.156,0,0,0-1.506.428m33.4,7.09c4.484-.538,4.009-8.283-1.181-7.41-4.725.8-3.567,7.981,1.181,7.41m-131.67-4.83a1.485,1.485,0,0,0-1.177-2.475c-2.9.313-.529,4.178,1.177,2.475m66.158-.22a3.841,3.841,0,0,0,1.829,5.263,4.068,4.068,0,0,0,5.258-1.824,3.878,3.878,0,0,0-4.185-5.478,3.64,3.64,0,0,0-2.9,2.04m95.263,3.866c4.43.54,4.3-6.591-.218-5.689-3,.6-3.01,5.293.218,5.689M9.577,203.571c4.889.9,5.214-7.239,0-6.124-3.392.73-2.69,5.628,0,6.124m155.512-3.223a1.481,1.481,0,0,0-1.184-2.465c-2.893.306-.522,4.173,1.184,2.465m-186.767,1.719c2.823,2.536,4.748-4.152.756-3.111a1.823,1.823,0,0,0-.756,3.111M81.962,206.9a4.413,4.413,0,0,0,3.01-3.006,3.846,3.846,0,0,0-4.727-4.617c-4.814.936-3.551,8.547,1.717,7.623m-35.116-5.37a3.846,3.846,0,0,0,1.824,5.265,4.074,4.074,0,0,0,5.263-1.827,3.877,3.877,0,0,0-4.187-5.473,3.624,3.624,0,0,0-2.9,2.035m62.5,3.759a3.615,3.615,0,0,0,4.94,0,3.448,3.448,0,1,0-4.94,0m30.932-3.862c-1.481,3.279,3.359,4.7,4.51,2.147a2.413,2.413,0,0,0-2.472-3.434,2.451,2.451,0,0,0-2.037,1.286M16.234,203.571c.084,3.916,6.659,4.4,6.659-.11a3.256,3.256,0,0,0-3.649-3.216,2.951,2.951,0,0,0-3.01,3.326m-29.425-.751a2.208,2.208,0,0,0,2.575,3.008c2.629-.482,1.778-4.83-1.071-4.189a2.033,2.033,0,0,0-1.5,1.181m185.9,0a1.467,1.467,0,0,0,1.074,0,1.406,1.406,0,0,0,0-1.076.769.769,0,0,0-1.074,1.076M55.757,206.359c.105,4.673,7.733,4.994,7.733-.105A3.642,3.642,0,0,0,59.3,202.5a3.539,3.539,0,0,0-3.544,3.859M86.9,204.532a3.754,3.754,0,0,0,4.94,4.942c3.693-1.462,1.979-6.086,0-6.874a5.163,5.163,0,0,0-2.362-.1,3.555,3.555,0,0,0-2.578,2.033m31.145.433c-1.23,4.5,6.124,5.331,6.124.863a2.981,2.981,0,0,0-3.333-3.008,2.85,2.85,0,0,0-2.791,2.145m-89.029,4.94c4.54-.1,4.023-7.2-.43-6.765-4.36.428-3.752,6.853.43,6.765m-70.562-5.8c-.105-1.462-1.275.564,0,0m192.668,3.219c2.6.8,3.735-3.93.54-3.647-2.362.2-2.075,3.174-.54,3.647m-155.51-.536c.11,3.186,5.055,3.074,4.942-.215a2.257,2.257,0,0,0-2.9-2.255,2.177,2.177,0,0,0-2.04,2.47m187.3-1.289c-.105-1.462-1.272.571,0,0M65.1,209.369c.1,4.468,7.515,4.935,7.515-.105a3.691,3.691,0,0,0-3.974-3.654,3.479,3.479,0,0,0-3.541,3.759m32.005,2.143a3.6,3.6,0,0,0,4.938,0,3.448,3.448,0,1,0-4.938,0m-130.381-3.969c1.258,1.207,2.208-1.932.426-1.394a.858.858,0,0,0-.426,1.394m70.988,5.37c5.015.477,4.973-7.642-.215-6.765-3.7.62-3.738,6.386.215,6.765m92.683-1.4c3.481-.11,3.088-5.567-.32-5.258-3.429.313-3.017,5.368.32,5.258M4.637,209.692c0,3.438,5.37,3.541,5.37,0a2.527,2.527,0,0,0-3.113-2.58,2.448,2.448,0,0,0-2.257,2.58m156.263.1c1.56.1,1.874-2.695,0-2.468a1.24,1.24,0,0,0,0,2.468m-184.4,1.4c1.56.1,1.871-2.7,0-2.47a1.241,1.241,0,0,0,0,2.47m102.991,4.4c3.607-1.413,2.29-7.494-2.037-6.765-5.029.844-2.678,8.615,2.037,6.765M106.56,214.3c2.975,2.982,7.4-1.883,4.4-4.613a3.64,3.64,0,0,0-2.8-.648,3.162,3.162,0,0,0-1.609,5.261m-59.609,1.612c5.015.487,4.968-7.635-.213-6.762-3.7.622-3.74,6.381.213,6.762m90.428-4.294c-.241,3.176,4.2,3.076,4.3.325A1.993,1.993,0,0,0,139.1,209.8a1.86,1.86,0,0,0-1.719,1.827M15.486,215.381c4.641,1.534,5.244-6.51.32-5.368-3.113.72-2.25,4.737-.32,5.368m154.436-3.434c.285,0,.615.042.753-.108v-.646a.533.533,0,0,0-.753.753m-185.691.749c-.257,2.767,3.565,2.21,3.221-.108-.115-.807-.7-1.509-2.037-1.184a1.4,1.4,0,0,0-1.184,1.291M86.692,218.6a3.435,3.435,0,0,0,3.757-1.934,3.339,3.339,0,0,0-3.757-4.617c-3.244.568-3.836,5.969,0,6.552m-29.968.323c4.545-.1,4.03-7.207-.426-6.767-4.36.428-3.757,6.856.426,6.767m59.391-1.831c2.737,2.54,6.418-1.715,3.866-4.075a2.814,2.814,0,0,0-2.147-.646,2.763,2.763,0,0,0-1.719,4.72m-93-2.25c-1.155,4.32,4.711,4.98,5.583,1.719a2.849,2.849,0,0,0-3.544-3.651,2.651,2.651,0,0,0-2.04,1.932m125.759,1.612c1.92-.1,2.026-3.474-.318-3.116-2.147.33-1.38,3.2.318,3.116M-4.812,217.849c2.5-.094,2.353-4.206-.43-3.757-2.463.4-1.682,3.843.43,3.757m67.337.756c.087,3.911,6.662,4.4,6.662-.108a3.26,3.26,0,0,0-3.656-3.219,2.949,2.949,0,0,0-3.006,3.326m31.039-1.181c-1.23,4.493,6.121,5.328,6.121.858a2.978,2.978,0,0,0-3.331-3,2.843,2.843,0,0,0-2.79,2.145m-61.431,1.394c.1,3.5,6.011,4,6.011-.1a2.931,2.931,0,0,0-3.328-2.905,2.749,2.749,0,0,0-2.683,3.008m95.258,1.609c2.905-.094,2.966-5.1-.428-4.617-2.95.423-2.325,4.706.428,4.617m-162.707-4.075c-.1-1.469-1.27.564,0,0m39.738,4.723c2.767-.115,2.585-4.662-.43-4.187-2.683.423-1.979,4.28.43,4.187m152.722-2.793c.816,1.286,2.575-.473,1.286-1.291-.255.068-.779-.136-.858.105-.409.133-.491.592-.428,1.186m-84.311,5.476c2.978,2.978,7.412-1.883,4.407-4.615a3.6,3.6,0,0,0-2.8-.646,3.166,3.166,0,0,0-1.612,5.261m-99.878-4.51a2.606,2.606,0,0,0,.538.538.816.816,0,0,0,.751-.756.659.659,0,0,0-1.289.218m130.917,4.082c2.734,2.538,6.416-1.717,3.866-4.082a2.806,2.806,0,0,0-2.15-.643,2.765,2.765,0,0,0-1.717,4.725m-62.507-1.5c.1,3.5,6.018,3.99,6.018-.112a2.932,2.932,0,0,0-3.333-2.9,2.75,2.75,0,0,0-2.685,3.01m94.94,1.074c2.482.234,2.828-4.252-.215-3.546-2.316.54-1.249,3.408.215,3.546m-123.72,1.177c3.962,1.455,4.451-5.3.323-4.292-2.479.6-1.7,3.792-.323,4.292m154.972-3c-.1-1.462-1.272.568,0,0m-185.583,1.5c.819,1.291,2.58-.468,1.294-1.286-.26.063-.784-.133-.863.108-.409.129-.487.587-.43,1.179m101.92,4.832c4.435.543,4.306-6.591-.213-5.691-3.006.6-3.008,5.3.213,5.691M50.82,223.865c-1.158,4.318,4.711,4.985,5.583,1.719a2.848,2.848,0,0,0-3.544-3.651,2.658,2.658,0,0,0-2.04,1.932m61.859.108c-.356,3.534,4.461,3.256,4.727.643a2.253,2.253,0,0,0-2.9-2.573,1.907,1.907,0,0,0-1.829,1.93m-92.037,0c-1.282,3.616,3.654,4.358,4.51,1.934a2.341,2.341,0,0,0-2.9-3.223,2.285,2.285,0,0,0-1.612,1.289m125.011,1.394c1.562.1,1.871-2.7,0-2.465a1.239,1.239,0,0,0,0,2.465M-8.033,226.442c1.56.1,1.871-2.7,0-2.47a1.241,1.241,0,0,0,0,2.47m98.909,1.071c0,3.441,5.368,3.546,5.368,0a2.524,2.524,0,0,0-3.113-2.575,2.442,2.442,0,0,0-2.255,2.575M62.2,230.522c4.414.812,4.463-6.423,0-5.478-2.762.589-2.861,4.949,0,5.478m60.144-3.544a1.894,1.894,0,0,0,2.36,2.253c2.253-.365,1.878-4.47-.968-3.752a1.762,1.762,0,0,0-1.392,1.5m-92.683,1.074c.11,3.188,5.05,3.069,4.935-.215a2.252,2.252,0,0,0-2.9-2.253,2.166,2.166,0,0,0-2.035,2.468M-.2,228.157a1.508,1.508,0,1,0,3.013-.105,1.332,1.332,0,0,0-1.829-1.286A1.26,1.26,0,0,0-.2,228.157m154.871-.643c.283,0,.611.042.751-.108v-.641a.53.53,0,0,0-.751.748m-183.759,1.076c-.105-1.462-1.272.568,0,0M69.4,230.734c0,3.441,5.368,3.544,5.368,0a2.527,2.527,0,0,0-3.111-2.578,2.448,2.448,0,0,0-2.257,2.578m33.5,2.15c2.9-.094,2.966-5.1-.423-4.615-2.957.423-2.33,4.706.423,4.615M38.9,231.06c.11,3.183,5.055,3.071,4.94-.218a2.256,2.256,0,0,0-2.9-2.253,2.173,2.173,0,0,0-2.04,2.47m93.223-.861c-.129,2.386,3.125,1.787,2.79-.213-.115-.676-.627-1.315-1.827-.964a1.155,1.155,0,0,0-.964,1.177m-123.294.964c0,3.1,5.16,1.193,3.008-1.177a1.731,1.731,0,0,0-1.506-.435c-1.17.168-1.5.756-1.5,1.612m155.725-.856c-.105-1.457-1.27.568,0,0M-19.85,231.6c-.1-1.46-1.27.568,0,0m98.7,2.255c.112,3.19,5.057,3.067,4.945-.215a2.257,2.257,0,0,0-2.9-2.257,2.183,2.183,0,0,0-2.044,2.472m-30.5-.861c-1.279,3.619,3.651,4.36,4.51,1.937a2.34,2.34,0,0,0-2.9-3.221,2.275,2.275,0,0,0-1.612,1.284m61.751.218a1.9,1.9,0,0,0,2.365,2.253c2.25-.367,1.878-4.472-.968-3.754a1.774,1.774,0,0,0-1.4,1.5M20,236c2.4-.112,2.021-3.857-.325-3.541A1.781,1.781,0,0,0,20,236m122.111-2.15a.841.841,0,0,0,1.284-1.071.841.841,0,0,0-1.284,1.071m-153.363.966c.288,0,.61.042.753-.105v-.648a.533.533,0,0,0-.753.753m99.77,1.071a2.211,2.211,0,0,0,2.58,3.01c2.627-.48,1.775-4.825-1.076-4.187a2.059,2.059,0,0,0-1.5,1.177m-29.533,3.226c3.651,1.254,4.2-5.167.32-4.3-2.58.582-1.829,3.775-.32,4.3m60.79-2.58c0,2.136,3.1,1.892,3-.108a1.331,1.331,0,0,0-1.824-1.289,1.261,1.261,0,0,0-1.179,1.4m-91.932,2.04c2.816,2.54,4.744-4.15.751-3.113a1.822,1.822,0,0,0-.751,3.113m124.471-2.04c-.105-1.46-1.275.571,0,0m-154.654,1.4a.844.844,0,0,0,1.291-1.071.844.844,0,0,0-1.291,1.071m71.531,4.185c2.765-.105,2.582-4.659-.433-4.185-2.685.421-1.984,4.285.433,4.185m29.315-.964c2.823,2.533,4.746-4.152.753-3.116a1.827,1.827,0,0,0-.753,3.116m-61.428.43c2.819,2.54,4.744-4.149.751-3.113a1.823,1.823,0,0,0-.751,3.113m92.575-1.614c.819,1.286,2.575-.47,1.291-1.286-.26.066-.784-.138-.861.108-.409.129-.491.585-.43,1.179m-122.969.858c.814,1.289,2.573-.468,1.289-1.284-.257.063-.779-.133-.858.1-.412.126-.491.589-.43,1.181m71.741,4.084c2.5-.1,2.353-4.213-.433-3.759-2.461.4-1.679,3.838.433,3.759m-30.717.108c2.4-.108,2.021-3.857-.32-3.544a1.782,1.782,0,0,0,.32,3.544m59.927-2.362c-.124,2.379,3.127,1.787,2.793-.218-.115-.678-.627-1.315-1.824-.964a1.169,1.169,0,0,0-.968,1.181m32.433.105c-.1-1.462-1.272.568,0,0m-122.108.43c-.082-.538-.437-1.053-1.4-.753-2.652.826,1.827,3.656,1.4.753m67.982,2.575c-.26,2.765,3.565,2.21,3.223-.108-.119-.807-.7-1.513-2.044-1.181a1.393,1.393,0,0,0-1.179,1.289m-30.824.43c0,3.1,5.155,1.191,3.008-1.179a1.705,1.705,0,0,0-1.5-.433c-1.172.168-1.5.751-1.5,1.612m62.291,0c.816,1.286,2.575-.47,1.286-1.286-.253.063-.779-.133-.858.108-.407.122-.489.582-.428,1.179m-90.753,1.289a1.153,1.153,0,0,0-.646-2.147c-1.944.267-.793,2.8.646,2.147m-31.037-.646c-.105-1.46-1.272.571,0,0M64.564,249.2a1.506,1.506,0,1,0,3.008-.108,1.329,1.329,0,0,0-1.824-1.289,1.261,1.261,0,0,0-1.184,1.4m32.113,1.076c1.562.1,1.871-2.7,0-2.472a1.243,1.243,0,0,0,0,2.472m-60.787.213a1.153,1.153,0,0,0-.643-2.147c-1.944.264-.8,2.8.643,2.147m91.934-1.5c-.108-1.462-1.275.568,0,0m-122.971.861c-.105-1.462-1.275.564,0,0M75.2,253.5c1.562.1,1.871-2.7,0-2.468a1.24,1.24,0,0,0,0,2.468m30.176-.964a.844.844,0,0,0,1.289-1.074.844.844,0,0,0-1.289,1.074m-61.861-.218c-.166,2.11,2.957.872,1.939-.536a1.05,1.05,0,0,0-.971-.32,1.023,1.023,0,0,0-.968.856m-29.315.54c-.105-1.462-1.275.568,0,0m69.484,2.788c.816,1.291,2.578-.47,1.291-1.284-.26.065-.781-.138-.861.105-.409.126-.487.587-.43,1.179m-30.717.215c.819,1.291,2.578-.472,1.289-1.289-.255.066-.777-.131-.854.11-.414.131-.491.589-.435,1.179m62.617-.641c-.108-1.462-1.272.566,0,0m-92.15.641c-.105-1.46-1.275.573,0,0m69.7,2.468a2.584,2.584,0,0,0,.54.543.813.813,0,0,0,.751-.753.66.66,0,0,0-1.291.211m-30.712.648a.843.843,0,0,0,1.286-1.074.843.843,0,0,0-1.286,1.074m-29.755-.105c-.1-1.467-1.268.566,0,0m70.672,2.575c-.108-1.462-1.272.566,0,0m-31.362.43c.288,0,.613.037.753-.11v-.641a.532.532,0,0,0-.753.751m-30.073,0c-.105-1.462-1.27.566,0,0m39.956,2.788c-.105-1.455-1.275.571,0,0m-30.719.217c-.1-1.46-1.272.566,0,0m26.1-180.393c-5.062,0-6.231,6.725-2.58,9.022-2.582-.292-3.8,1.357-4.83,2.255.2-2.571-1.488-3.813-2.58-4.725,3.677.051,5.794-2.063,5.37-5.478a4.648,4.648,0,0,0-4.082-3.969c-5.637-.589-7.073,7.155-2.79,9.019-2.84-.367-4.271,1.24-5.263,2.362A4.845,4.845,0,0,0,56.3,87.71c-5.354-.6-7.228,6.535-3.333,9.022-2.514-.264-3.7,1.38-4.725,2.253.4-4.713-5.424-6.482-8.271-3.757a5.249,5.249,0,0,0-1.394,4.4c.234,1.619,1.446,2.566,2.257,3.434a4.991,4.991,0,0,0-4.942,2.69c.84-7.326-10.341-7.155-9.45,0,.573,4.587,7.492,5.214,9.019,1.394-.494,2.372,1.088,4.033,1.934,5.045-2.288-.136-3.485,1.382-4.4,2.253-.225-3.083-1.984-5.307-5.263-5.045-6.126.494-5.452,10.17.863,9.665a5.644,5.644,0,0,0,3.757-2.255c-.267,2.376,1.151,3.644,1.932,4.617-2.213-.1-3.392,1.4-4.3,2.253-.222-3.081-1.981-5.307-5.261-5.043-5.911.472-5.452,9.326.105,9.667,2.283.136,3.471-1.134,4.514-2.257-.267,2.372,1.148,3.642,1.93,4.613a5.36,5.36,0,0,0-4.4,2.8c.625-6.828-8.734-7.041-9.45-1.509-.744,5.789,7.211,7.239,9.022,2.9a5.467,5.467,0,0,0,2.362,5.265c-6.7-.573-6.673,8.987-1.181,9.66a5.631,5.631,0,0,0,4.94-2.042c-.208,2.43,1.343,3.668,2.255,4.62-2.954.073-4.741,1.609-5.048,4.079-.692,5.632,6.6,7.242,9.022,3.438a5.324,5.324,0,0,0,2.9,4.938c-3.263-.257-5.284,1.63-5.586,3.972a4.684,4.684,0,0,0,3.976,5.476c5.45.706,7.579-7.034,2.683-9.127,2.575.561,4.341-1.067,5.37-2.037-.164,2.451,1.439,3.714,2.47,4.613-3.24.15-5.1,1.766-5.265,4.51-.393,6.491,10.231,6.907,9.667-.105a4.987,4.987,0,0,0-2.575-3.864c2.545.33,3.937-1.074,4.938-1.934-.084,2.3,1.481,3.532,2.47,4.4-3.24.143-5.1,1.759-5.263,4.51-.4,6.486,10.231,6.9,9.667-.108a4.986,4.986,0,0,0-2.578-3.864c2.545.325,3.939-1.074,4.94-1.937a5.353,5.353,0,0,0,2.793,4.4c-6.641-.872-7.195,8.713-1.506,9.45,5.661.732,7.349-6.907,2.9-9.022a5.46,5.46,0,0,0,5.265-2.362c-.578,4.94,5.558,6.8,8.376,3.866,2.11-2.2,1.317-6.372-.861-7.625,2.5.241,3.761-1.317,4.727-2.253-.4,4.713,5.427,6.486,8.264,3.757,2.311-2.21,1.474-6.411-.851-7.838a4.987,4.987,0,0,0,4.935-2.683c-.767,7.055,8.881,6.912,9.452,1.4a4.718,4.718,0,0,0-4.082-5.373,4.823,4.823,0,0,0-4.94,2.578c.5-2.369-1.085-4.033-1.932-5.043,2.318.129,3.513-1.429,4.4-2.365-.047,6.919,9.789,6.4,9.665.213-.1-5.1-7.012-6.042-9.022-2.47.292-2.407-1.212-3.583-1.932-4.617,2.243.1,3.422-1.441,4.3-2.362.175,3.1,1.829,5.155,4.83,5.155,6.477,0,6.03-9.787-.105-9.663a5.487,5.487,0,0,0-4.084,2.253c.2-2.484-1.039-3.541-2.147-4.723,2.5.168,3.719-1.506,4.62-2.575-.016,3.286,1.553,5.085,4.079,5.368a4.736,4.736,0,0,0,5.37-4.079c.454-4.037-4.2-7.223-7.733-4.4-.5.393-.87,1.2-1.289,1.5.351-2.779-1.272-4.166-2.362-5.153A4.863,4.863,0,0,0,113,119.065c-.589-4.482-6.949-5.31-9.022-1.934.241-2.524-1.359-3.792-2.358-4.72,6.61.363,6.465-9.045.964-9.665a5.356,5.356,0,0,0-4.938,2.362c.3-2.772-1.408-4.1-2.578-5.05,3.284.016,5.083-1.553,5.366-4.079a4.719,4.719,0,0,0-4.079-5.366c-4.157-.468-7.237,4.393-4.3,7.838.384.442,1.141.793,1.4,1.179a5.568,5.568,0,0,0-4.942,2.044c.171-2.4-1.4-3.612-2.362-4.512,3.284-.159,5.155-2.037,5.155-4.832,0-6.163-9.794-6.395-9.665.105a5.575,5.575,0,0,0,2.253,4.084c-2.4-.292-3.583,1.209-4.615,1.932.091-2.243-1.448-3.424-2.365-4.295,6.765.18,6.453-9.667.325-9.667m-17.4,10.416a6.563,6.563,0,0,0,1.827,4.62c-1.923-.058-3.067,1.23-3.972,1.824a4.638,4.638,0,0,0-2.475-3.866c2.257-.14,3.822-.975,4.62-2.578m9.237,3.331a5.167,5.167,0,0,0,1.824,4.079,6.049,6.049,0,0,0-3.651,1.822A6.388,6.388,0,0,0,65.1,100.6a5.263,5.263,0,0,0,3.972-2.362m-21.585,3.113a6.532,6.532,0,0,0,1.824,4.4c-1.913.054-2.84,1.1-3.976,1.93a4.5,4.5,0,0,0-2.468-3.972c2.224-.1,3.8-.854,4.62-2.362m30.824.213a5.111,5.111,0,0,0,1.822,3.757c-1.532.119-2.711,1.155-3.651,1.509a4.279,4.279,0,0,0-1.827-3.116,5.72,5.72,0,0,0,3.656-2.15m9.232,2.9c.4,1.612.8,3.207,2.042,3.974a5.964,5.964,0,0,0-3.651,1.715c-.463-1.359-.875-2.774-2.044-3.436a5.188,5.188,0,0,0,3.654-2.253M56.513,105a5.666,5.666,0,0,0,1.609,3.436,6.906,6.906,0,0,0-3.223,1.715,5.527,5.527,0,0,0-1.934-3.216A5.378,5.378,0,0,0,56.513,105M97,107.036c.108,2.224.889,3.766,2.36,4.622a6.538,6.538,0,0,0-4.4,1.827,6.069,6.069,0,0,0-2.04-3.974A4.619,4.619,0,0,0,97,107.036m-31.252,1.291a8.72,8.72,0,0,0,1.4,3.116,4.739,4.739,0,0,0-2.8,1.394,6.718,6.718,0,0,0-1.609-2.79,5.316,5.316,0,0,0,3.008-1.719m-21.48,2.793a5.585,5.585,0,0,0,1.715,3.654,6.532,6.532,0,0,0-3.431,1.927,5.608,5.608,0,0,0-2.15-3.541c1.609-.358,3.1-.83,3.866-2.04m30.714.538a13.156,13.156,0,0,0,1.392,2.788,4.57,4.57,0,0,0-2.463,1.181c-.543-.781-.727-1.92-1.506-2.468a7.08,7.08,0,0,0,2.578-1.5m9.345,2.9c.531.968.727,2.278,1.612,2.9a6.137,6.137,0,0,0-2.79,1.4,12.082,12.082,0,0,0-1.506-2.793,5,5,0,0,0,2.685-1.5m-31.037.215a6.091,6.091,0,0,0,1.394,2.788,6.717,6.717,0,0,0-2.683,1.5c-.288-1.116-1.251-2.105-1.509-2.9a4.174,4.174,0,0,0,2.8-1.394m40.487,2.255a5.284,5.284,0,0,0,1.937,3.651,6.1,6.1,0,0,0-3.438,1.609,6.832,6.832,0,0,0-1.722-3.223c1.312-.442,2.615-.9,3.223-2.037m-31.357,1.181c.566.54.55,1.663,1.179,2.145a23.945,23.945,0,0,0-2.257,1.184,5.353,5.353,0,0,0-1.181-2.044,6.405,6.405,0,0,0,2.26-1.284m40.81,1.179c.143,2.255.978,3.822,2.578,4.617a6.557,6.557,0,0,0-4.617,1.824,4.808,4.808,0,0,0-2.042-3.866,5.111,5.111,0,0,0,4.082-2.575m-62.076,1.291c.157,1.46,1.165,2.617,1.5,3.539a4.8,4.8,0,0,0-3.113,1.722,5.579,5.579,0,0,0-2.15-3.544,5.594,5.594,0,0,0,3.759-1.717m30.719.748a14.241,14.241,0,0,0,.961,2.042,4.827,4.827,0,0,0-1.824.856c-.414-.515-.5-1.354-1.074-1.717.561-.477,1.462-.613,1.937-1.181m-21.8,2.9c.477.849.821,1.829,1.291,2.685a4.322,4.322,0,0,0-2.365,1.293,7.049,7.049,0,0,0-1.5-2.582c.835-.484,2.049-.6,2.575-1.4m31.037,0c.6.625.662,1.775,1.4,2.257-.7.367-1.635.515-2.15,1.074a22.085,22.085,0,0,0-1.181-2.255,3.271,3.271,0,0,0,1.932-1.076m9.56,2.58a5.753,5.753,0,0,0,1.612,2.9,9.674,9.674,0,0,0-3.01,1.4,4.741,4.741,0,0,0-1.286-2.685,7.542,7.542,0,0,0,2.685-1.609M60.27,129.7c-.641.36-1.315.69-1.932,1.069-.22-.781-.716-1.286-.968-2.037a3.661,3.661,0,0,0,1.824-.858c.575.391.545,1.389,1.076,1.827m39.738-.433c.5,1.581.982,3.172,2.36,3.864a5.163,5.163,0,0,0-3.972,1.827,8.221,8.221,0,0,0-1.719-3.757,4.335,4.335,0,0,0,3.331-1.934m-61.863.646a6.155,6.155,0,0,0,1.722,3.434,8.665,8.665,0,0,0-3.544,2.042c.105-1.969-1.361-2.936-1.937-3.864a4.787,4.787,0,0,0,3.759-1.612m30.5,1.289c.358.43.456,1.118.863,1.5-.433.356-1.12.454-1.506.856-.356-.43-.456-1.116-.858-1.5.43-.36,1.118-.456,1.5-.858m-21.585,2.36c.566.828.709,2.082,1.5,2.688-1.1.229-2.03,1.181-2.8,1.392a4.1,4.1,0,0,0-1.5-2.683c.994-.4,2.208-.582,2.793-1.4m31.037.43a14.91,14.91,0,0,1,1.074,2.04,3.7,3.7,0,0,0-1.827.858c-.381-.547-.5-1.361-.971-1.822.519-.421,1.359-.51,1.724-1.076m9.45,2.47a7.072,7.072,0,0,0,1.506,2.58,12.615,12.615,0,0,0-2.793,1.394c-.073-1.181-.758-1.75-1.078-2.685a4.344,4.344,0,0,0,2.365-1.289m-30.073,2.685c-.723.454-1.527.83-2.255,1.289a5.915,5.915,0,0,0-1.071-2.365,4.876,4.876,0,0,0,2.042-.966c.627.48.58,1.635,1.284,2.042M97,138.713a5.7,5.7,0,0,0,2.147,3.651,5.124,5.124,0,0,0-3.759,1.827c-.117-1.532-1.151-2.709-1.5-3.649A4.292,4.292,0,0,0,97,138.713m-61.754.11a5.41,5.41,0,0,0,2.04,3.972,5.325,5.325,0,0,0-3.976,2.468c-.126-2.194-.945-3.7-2.468-4.507a5.189,5.189,0,0,0,4.4-1.932m30.391,1.612c.414.515.51,1.354,1.076,1.717a14.951,14.951,0,0,1-2.044,1.074,3.657,3.657,0,0,0-.858-1.829c.552-.384,1.368-.494,1.827-.961M45.77,145.8a4.579,4.579,0,0,0-3.006,1.824,6.724,6.724,0,0,0-1.827-3.649,4.368,4.368,0,0,0,3.223-1.4c.419,1.127,1.223,2.419,1.609,3.223m29.32-2.578c.505.608.653,1.57,1.284,2.037a6.459,6.459,0,0,0-2.25,1.294c-.372-.706-.517-1.635-1.074-2.152.636-.437,1.6-.543,2.04-1.179m9.45,2.47c.288,1.116,1.251,2.1,1.506,2.9a4.176,4.176,0,0,0-2.8,1.4,6.077,6.077,0,0,0-1.394-2.79,6.709,6.709,0,0,0,2.683-1.5m-31.037.213a6.781,6.781,0,0,0,1.5,2.683,5.945,5.945,0,0,0-2.793,1.722,8.884,8.884,0,0,0-1.5-3.116,4.9,4.9,0,0,0,2.793-1.289m40.489,2.04a5.208,5.208,0,0,0,2.253,3.654c-1.67.327-3.186.814-3.969,2.04a5.6,5.6,0,0,0-1.722-3.654c1.366-.461,2.779-.872,3.438-2.04m-31.037,1.293a4.319,4.319,0,0,0,1.289,2.36,5.95,5.95,0,0,0-2.578,1.5c-.44-.919-.655-2.063-1.4-2.683a18.623,18.623,0,0,0,2.685-1.177m-21.59,2.037a9.09,9.09,0,0,0,2.04,3.864,5.11,5.11,0,0,0-3.862,2.47,5.177,5.177,0,0,0-2.257-4.512c1.806-.161,3.317-.618,4.079-1.822m30.824.753a7.429,7.429,0,0,0,1.614,2.683,5.278,5.278,0,0,0-2.9,1.609,6.519,6.519,0,0,0-1.392-2.9,6.526,6.526,0,0,0,2.681-1.394M50.6,154.61c.6,1.214.905,2.741,2.04,3.434-1.57.435-2.992,1.022-3.651,2.365a6.691,6.691,0,0,0-1.932-4.189A4.458,4.458,0,0,0,50.6,154.61m31.037,0a5.536,5.536,0,0,0,1.932,3.216c-1.5.327-2.851.8-3.541,1.934a5.694,5.694,0,0,0-1.612-3.436,6.888,6.888,0,0,0,3.221-1.715m9.345,2.47c.51,1.708,1.148,3.284,2.685,3.969-2.229.1-3.8.851-4.617,2.365-.14-1.941-.66-3.5-1.937-4.3a5.77,5.77,0,0,0,3.869-2.035m-31.039.746c.5,1.228.9,2.538,1.932,3.223a5.577,5.577,0,0,0-3.541,2.15,5.575,5.575,0,0,0-1.719-3.759,5.714,5.714,0,0,0,3.328-1.614m9.347,2.9a9.6,9.6,0,0,0,2.037,3.544c-1.969-.108-2.933,1.359-3.866,1.934a4.786,4.786,0,0,0-1.612-3.759,5.7,5.7,0,0,0,3.441-1.719m9.447,2.58a5.327,5.327,0,0,0,2.47,3.972,5.166,5.166,0,0,0-4.512,2.465,6.323,6.323,0,0,0-1.822-4.507,5,5,0,0,0,3.864-1.93" transform="translate(64.259 0.231)" fill="#fcfbfa"/>
      </g>
    </g>
  </g>
</svg>
