<svg version="1.1" id="Scrub" xmlns="http://www.w3.org/2000/svg" xmlns:xlink="http://www.w3.org/1999/xlink" x="0px" y="0px"
	 viewBox="0 0 28.3 23.2" style="enable-background:new 0 0 28.3 23.2;" xml:space="preserve">
	<path class="fill" d="M8.5,18.1C7,18,5.7,17.5,4.6,16.5c-0.7-0.7-1.2-1.5-1.5-2.4C4,14.2,4.8,14.2,5.6,14C2.8,13.1,1.2,11.2,1,8.1
			c0.9,0.4,1.7,0.7,2.6,0.7C1,6.7,0.4,4.1,1.8,1.1C5,4.8,9,6.9,13.9,7.2c0-0.3-0.1-0.7-0.1-1c-0.1-2.7,1.4-5,4-5.9
			c2.1-0.7,4.1-0.2,5.8,1.3c0.2,0.2,0.4,0.3,0.7,0.2c0.5-0.2,1.1-0.3,1.7-0.5C26.5,1,27,0.8,27.6,0.5c-0.4,1.3-1.3,2.3-2.4,3.2
			c0.3-0.1,0.7-0.1,1-0.2c0.4-0.1,0.7-0.2,1.1-0.3c0.3-0.1,0.7-0.2,1.1-0.4c-0.7,1-1.4,1.9-2.3,2.5c-0.4,0.3-0.5,0.6-0.5,1.1
			c-0.2,6.1-2.8,11-8,14.4c-1.9,1.2-4,1.9-6.2,2.2c-2.4,0.3-4.7,0.2-7-0.5c-1.5-0.4-2.8-1-4.1-1.9c0,0,0,0-0.1-0.1
			c1.5,0.1,3,0,4.5-0.4C5.9,19.8,7.3,19.1,8.5,18.1z"/>
</svg>
