<svg version="1.1" xmlns="http://www.w3.org/2000/svg" xmlns:xlink="http://www.w3.org/1999/xlink" x="0px" y="0px"
	 viewBox="0 0 16 16" style="enable-background:new 0 0 16 16;" xml:space="preserve">
<path class="fill" d="M0,14.6V1.4c0,0,0,0,0-0.1C0.2,0.5,0.9,0,1.6,0c4.2,0,8.5,0,12.7,0c0.1,0,0.3,0,0.4,0.1
	C15.5,0.2,16,0.9,16,1.7c0,4.2,0,8.4,0,12.7c0,0,0,0.1,0,0.1c0,0.4-0.2,0.8-0.5,1.1c-0.2,0.2-0.5,0.3-0.8,0.4H1.4c0,0,0,0-0.1,0
	c-0.4-0.1-0.7-0.3-0.9-0.6C0.2,15.2,0.1,14.9,0,14.6 M8.8,7.2V6.4H6.4v7.2h2.4v-0.2c0-1.3,0-2.6,0-3.9c0-0.1,0-0.2,0-0.3
	c0.1-0.7,0.7-1.1,1.3-1c0.1,0,0.1,0,0.2,0c0.5,0.2,0.9,0.7,0.9,1.2c0,1.3,0,2.6,0,4v0.2h2.4c0,0,0-0.1,0-0.1c0-1.5,0-3,0-4.5
	c0-0.6-0.2-1.2-0.6-1.7c-0.8-1.2-2.4-1.4-3.6-0.6c-0.1,0-0.1,0.1-0.2,0.1C9.1,7,8.9,7.1,8.8,7.2 M2.4,13.6h2.4V6.4H2.4L2.4,13.6z
	 M5,3.6c0-0.8-0.6-1.4-1.4-1.4S2.2,2.8,2.2,3.6C2.2,4.4,2.8,5,3.6,5C4.4,5,5,4.4,5,3.6"/>
</svg>
