<svg xmlns="http://www.w3.org/2000/svg" version="1.1" viewBox="0 0 28.3 28.3">
  <path class="fill" d="M22.5,12.5c-4.6-2.7-12.1-3-16.4-1.6-.7.2-1.4-.2-1.6-.9-.2-.7.2-1.4.9-1.7,5-1.5,13.3-1.2,18.6,1.9.6.4.8,1.2.5,1.8s-1.2.8-1.8.5ZM22.4,16.6c-.3.5-1,.7-1.5.4-3.8-2.3-9.6-3-14.1-1.6-.6.2-1.2-.2-1.4-.7-.2-.6.2-1.2.7-1.4,5.1-1.6,11.5-.8,15.9,1.9.5.3.7,1,.4,1.5ZM20.6,20.4c-.3.4-.8.5-1.2.3-3.3-2-7.5-2.5-12.4-1.4-.5.1-.9-.2-1.1-.7-.1-.5.2-.9.7-1.1,5.4-1.2,10-.7,13.7,1.6.4.3.5.8.3,1.2ZM14.2,0C6.3,0,0,6.3,0,14.2s6.3,14.2,14.2,14.2,14.2-6.3,14.2-14.2S22,0,14.2,0Z"/>
</svg>