<svg version="1.1" xmlns="http://www.w3.org/2000/svg" xmlns:xlink="http://www.w3.org/1999/xlink" x="0px" y="0px"
	 viewBox="0 0 16 16" style="enable-background:new 0 0 16 16;" xml:space="preserve">
<path class="fill" d="M12.2,2.9c-0.5,0-0.9,0.4-0.9,0.9s0.4,0.9,0.9,0.9s0.9-0.4,0.9-0.9l0,0C13.2,3.3,12.8,2.9,12.2,2.9"/>
<path class="fill" d="M8.1,4.1c-2.2,0-4,1.7-4,3.9s1.8,3.9,3.9,3.9s4-1.7,4-3.9S10.2,4.1,8.1,4.1 M8.1,10.5c-1.4,0-2.5-1.1-2.5-2.5
	s1.1-2.5,2.5-2.5s2.5,1.1,2.5,2.5S9.5,10.5,8.1,10.5"/>
<path class="fill" d="M11.2,16H4.8C2.2,16,0,13.8,0,11.2V4.8C0,2.2,2.2,0,4.8,0h6.4C13.8,0,16,2.2,16,4.8v6.4
	C16,13.8,13.8,16,11.2,16 M4.8,1.5C3,1.5,1.5,3,1.5,4.8v6.4c0,1.8,1.5,3.3,3.3,3.3l0,0h6.4c1.8,0,3.3-1.5,3.3-3.3l0,0V4.8
	c0-1.8-1.5-3.3-3.3-3.3l0,0L4.8,1.5z"/>
</svg>
