<svg xmlns="http://www.w3.org/2000/svg" xmlns:xlink="http://www.w3.org/1999/xlink" x="0px" y="0px" viewBox="0 0 28.3 28.3" style="enable-background:new 0 0 28.3 28.3;" xml:space="preserve">
<path class="fill" d="M28.3,4.3c0,6.6,0,13.2,0,19.8c0,0.1,0,0.1-0.1,0.2c-0.4,2-1.6,3.3-3.6,3.9c-0.2,0.1-0.4,0.1-0.6,0.1
	c-1.8,0-3.7,0-5.5,0c0-0.1,0-0.1,0-0.2c0-3.4,0-6.8,0-10.2c0-0.1,0-0.2,0-0.3c0.1,0,0.2,0,0.3,0c1.4,0,2.8,0,4.2,0
	c0.2,0,0.3,0,0.3-0.3c0-1.4,0-2.8,0-4.2c0-0.1,0-0.2,0-0.3c-1.6,0-3.1,0-4.7,0c0-0.7,0-1.4,0-2.1c0-0.7,0.5-1,1.1-1
	c1.1,0,2.2,0,3.3,0c0.1,0,0.2,0,0.3,0c0-1.6,0-3.1,0-4.7c-0.1,0-0.2,0-0.2,0c-1.2,0-2.3,0-3.5,0c-1,0-1.9,0.3-2.8,0.9
	c-1.4,1-2.3,2.4-2.5,4.1c-0.1,0.9-0.1,1.7-0.1,2.6c0,0.1,0,0.2,0,0.3c-1.2,0-2.3,0-3.5,0c0,0.1,0,0.1,0,0.2c0,1.4,0,2.9,0,4.3
	c0,0.2,0.1,0.2,0.2,0.2c1,0,2,0,2.9,0c0.1,0,0.2,0,0.3,0c0,3.6,0,7.1,0,10.7c-3.3,0-6.6,0-9.9,0c-0.1,0-0.1,0-0.2-0.1
	c-2-0.4-3.3-1.6-3.9-3.6C0.1,24.5,0,24.3,0,24.1c0-6.6,0-13.2,0-19.8C0,4.2,0.1,4.1,0.1,4C0.5,2,1.7,0.8,3.6,0.2
	C3.8,0.1,4,0.1,4.3,0c6.6,0,13.2,0,19.8,0c0.1,0,0.1,0,0.2,0.1c2,0.4,3.4,1.6,3.9,3.6C28.3,3.9,28.3,4.1,28.3,4.3L28.3,4.3z"/>
</svg>