<svg xmlns="http://www.w3.org/2000/svg" xmlns:xlink="http://www.w3.org/1999/xlink" x="0px" y="0px"
	 viewBox="0 0 28.3 28.4" style="enable-background:new 0 0 28.3 28.4;" xml:space="preserve">
	<path class="stroke" d="M0,15.2c0-0.7,0-1.4,0-2.1c0.1-0.5,0.2-0.9,0.2-1.4C1.5,4.4,8.4-1,16.2,0.2c6.6,1,11.4,6.1,12,12.8
			c0.6,6.2-3.1,12.2-8.9,14.4c-1.3,0.5-2.7,0.7-4.1,1c-0.7,0-1.4,0-2.1,0c-0.1,0-0.3-0.1-0.4-0.1c-5.9-0.8-9.8-4-11.9-9.5
			C0.4,17.6,0.3,16.4,0,15.2z M8.9,10.8c-2,0-4,0-6.1,0c-0.1,0-0.4,0.2-0.4,0.4c-0.5,1.9-0.5,3.9,0,5.8c0.1,0.4,0.3,0.5,0.7,0.5
			c1.8,0,3.6,0,5.4,0c0.2,0,0.4,0,0.5,0C8.9,15.3,8.9,13.1,8.9,10.8z M19.5,17.5c0,0,0.1,0.1,0.2,0.1c2,0,3.9,0,5.9,0
			c0.2,0,0.4-0.3,0.4-0.4c0.5-1.9,0.5-3.9,0-5.8c-0.1-0.4-0.2-0.5-0.6-0.5c-1.4,0-2.9,0-4.3,0c-0.5,0-1,0-1.5,0
			C19.5,13.1,19.5,15.3,19.5,17.5z M10.9,10.8c0,2.2,0,4.4,0,6.7c2.2,0,4.3,0,6.5,0c0-2.2,0-4.4,0-6.7
			C15.2,10.8,13.1,10.8,10.9,10.8z M11.2,8.7c2,0,4,0,6,0C17,8,16.9,7.3,16.7,6.6c-0.4-1.4-0.8-2.8-1.7-4c-0.6-0.8-1.1-0.8-1.7,0
			c-0.1,0.1-0.1,0.2-0.2,0.2C12,4.6,11.6,6.7,11.2,8.7z M11.2,19.6c0.4,2.1,0.8,4.1,1.9,5.9c0.7,1.1,1.5,1.2,2.1,0
			c0.6-1.2,1.1-2.5,1.5-3.8c0.2-0.6,0.3-1.3,0.4-2C15.2,19.6,13.2,19.6,11.2,19.6z M9.1,8.8c0.2-1.1,0.4-2.1,0.7-3.1
			c0.3-1,0.7-2,1-3.1c-2.4,0.2-7,3.9-7.4,6.2C5.3,8.8,7.2,8.8,9.1,8.8z M10.8,25.8c-0.6-2-1.2-4.1-1.7-6.2c-1.8,0-3.7,0-5.6,0
			C4.1,22.1,8.2,25.5,10.8,25.8z M17.5,25.8c2.4-0.1,6.9-3.8,7.4-6.2c-1.9,0-3.8,0-5.7,0c-0.2,1.1-0.4,2.1-0.7,3.1
			C18.2,23.8,17.9,24.8,17.5,25.8z M25,8.8c-0.7-2.5-5.2-6.2-7.3-6.2c0.6,2,1.1,4.1,1.7,6.2C21.2,8.8,23.1,8.8,25,8.8z"/>
</svg>
